<svg width="51" height="51" viewBox="0 0 51 51" fill="none" xmlns="http://www.w3.org/2000/svg">
<path d="M9.00881 11.5613C7.42104 6.16498 8.64384 3.36745 11.8783 7.80415C15.1127 12.2409 13.6298 17.5671 11.4878 19.1285M14.4324 27.0518C14.5154 32.701 13.8206 37.2676 13.0893 41.5023C12.6303 41.3882 12.1775 41.3258 11.8379 41.3258C10.9367 41.3258 10.5468 42.4426 10.5468 42.4426C10.0647 43.1049 10.5545 44.0358 11.3736 44.0358H14.1047C14.5112 44.0358 14.8365 43.8064 15.0022 43.4945L15.051 43.503C15.051 43.503 17.2848 38.6767 17.8555 35.3798L19.3025 27.0217L14.4324 27.0518ZM43.4518 23.967L34.8479 21.7687C30.5516 25.4784 34.6453 33.9371 36.2783 36.186C37.8204 38.3098 37.6318 40.7187 37.2882 42.1957C36.8823 42.1045 36.4905 42.0548 36.1884 42.0548C35.2872 42.0548 34.8973 43.1717 34.8973 43.1717C34.4152 43.834 34.905 44.7648 35.7241 44.7648H38.4552C38.5967 44.7657 38.7367 44.7366 38.8661 44.6794C38.9954 44.6223 39.1112 44.5384 39.2058 44.4332C39.3694 44.3011 39.4817 44.0624 39.5101 43.6744C39.6611 41.6133 41.3237 39.9685 40.7484 38.1825C38.965 32.6452 43.0035 30.0867 43.4518 23.967Z" fill="#AF773F"/>
<path d="M46.7558 13.6886C46.5564 12.9449 46.1849 12.2508 45.6373 11.6743C45.358 11.3812 45.0346 11.1336 44.6788 10.9404C44.3184 10.7452 43.9189 10.6111 43.5191 10.5563C43.1361 10.5037 42.7471 10.5151 42.3679 10.5902C42.0095 10.6619 41.6901 10.7836 41.4059 10.9226C41.3341 10.9568 41.2674 10.9948 41.1992 11.0308C41.1336 11.0693 41.069 11.108 41.0063 11.1473L40.8036 11.2821L40.6303 11.419C40.5483 11.4829 40.4937 11.5374 40.4331 11.5945C40.3749 11.6531 40.318 11.7117 40.2663 11.7739C40.161 11.8966 40.0699 12.027 39.9887 12.1588C39.6685 12.6895 39.5486 13.2861 39.6318 13.8155C39.6712 14.0796 39.7611 14.3229 39.8807 14.5238C39.987 14.7053 40.1252 14.8661 40.2887 14.9984C40.4314 15.1135 40.5692 15.1935 40.69 15.2449C40.8103 15.299 40.9133 15.332 40.9956 15.3532C41.078 15.3775 41.1415 15.3846 41.1835 15.3924L41.2473 15.4028C41.3513 15.4197 41.458 15.4012 41.5502 15.3503C41.6425 15.2993 41.7149 15.2188 41.7559 15.1217C41.7969 15.0246 41.8041 14.9166 41.7764 14.8149C41.7486 14.7133 41.6875 14.6239 41.6029 14.5611L41.5328 14.5092L41.5003 14.4851C41.4791 14.4695 41.4467 14.4468 41.411 14.4152C41.337 14.3558 41.2435 14.2548 41.191 14.1355C41.1365 14.0152 41.1327 13.8849 41.1764 13.7357C41.198 13.6612 41.2383 13.5796 41.2904 13.4979C41.344 13.4162 41.4181 13.3357 41.5017 13.2631C41.5459 13.228 41.591 13.1938 41.6415 13.1648C41.6661 13.1499 41.6923 13.1365 41.7173 13.1223C41.7432 13.1107 41.7738 13.0928 41.7854 13.0939L41.7967 13.091L41.8021 13.0892L41.8192 13.0812L41.8971 13.0445L41.9166 13.0354C41.9243 13.031 41.8684 13.0648 41.8938 13.0498L41.8976 13.0483L41.9052 13.0454L41.9355 13.0337L41.9959 13.0099C42.075 12.9812 42.1552 12.9555 42.2362 12.9329C42.3945 12.8908 42.549 12.8675 42.689 12.8713C42.8295 12.8699 42.9548 12.8939 43.0684 12.9343C43.1811 12.9784 43.2858 13.0333 43.387 13.1135C43.4884 13.1932 43.583 13.2981 43.6745 13.4192C43.8548 13.6644 43.9918 13.9978 44.0519 14.3361C44.1088 14.6752 44.0911 15.0159 44.0028 15.2706C43.9821 15.331 43.9577 15.3902 43.9299 15.4477C43.9171 15.4735 43.8985 15.5073 43.8985 15.5073C43.8963 15.5111 43.8994 15.5074 43.8933 15.5177L43.8667 15.5608L43.8401 15.6037L43.8368 15.6091L43.8363 15.61L43.8517 15.5849L43.8465 15.5925L43.836 15.6079C43.726 15.7694 43.6081 15.9254 43.4828 16.0754C43.3557 16.2203 43.226 16.3601 43.0892 16.4896C42.9507 16.6168 42.8114 16.7406 42.6662 16.8517C42.39 17.0653 42.0963 17.2552 41.788 17.4192C41.6454 17.4962 41.4997 17.5672 41.3513 17.6321C40.4669 17.088 39.4776 16.8176 38.5094 16.8128C35.6538 16.7981 33.5486 18.2484 28.3133 18.2216C24.5345 18.2023 21.1102 17.6584 18.9946 16.3042C18.8514 16.1828 18.6974 16.0748 18.5344 15.9817C18.5065 15.9601 18.4779 15.9398 18.4496 15.9191C18.13 15.6378 17.7267 14.797 17.1165 13.8341C17.3963 12.0563 17.3506 9.88423 16.7595 8.27783C14.9232 3.2878 11.4026 4.45602 11.7093 10.0272C7.38475 9.613 4.86802 12.0338 4.45514 15.6946C4.39976 16.1853 4.40806 16.6811 4.47984 17.1697C4.61003 18.0575 3.29589 18.8094 3.19757 19.7014L3.19379 19.7373C3.03551 21.3344 6.15996 22.5536 7.30427 22.6827C9.36539 22.9152 11.3372 21.0207 11.8516 22.7439C12.2983 26.0893 14.5984 31.0783 17.861 32.9076C19.1363 37.1266 20.0125 39.0925 19.2275 42.2257C18.785 42.1191 18.3517 42.0607 18.024 42.0607C17.1228 42.0607 16.7329 43.1776 16.7329 43.1776C16.2508 43.8399 16.7406 44.7707 17.5598 44.7707H20.2908C20.8994 44.7707 21.3257 44.257 21.3074 43.7214H21.3832C21.3832 43.7214 22.3935 40.1285 22.3935 37.7881C22.3935 36.7227 22.4696 34.9192 22.5526 33.2702C27.1392 32.2479 28.597 31.0444 30.9302 30.4158C32.3327 30.038 33.8206 30.5491 34.7205 31.6892C36.0493 33.3728 37.7186 34.6831 39.4725 35.2124C42.2631 36.0545 43.1856 39.4867 43.4723 41.1494C43.5064 41.3446 43.5559 41.5367 43.6204 41.724C43.3153 41.6554 43.0262 41.6186 42.7961 41.6186C41.9993 41.6186 41.6546 42.7354 41.6546 42.7354C41.2283 43.3977 41.6613 44.3286 42.3856 44.3286H44.8001C45.1901 44.3286 45.494 44.0579 45.6264 43.7054C45.7438 43.6166 45.8156 43.4111 45.8156 43.0402C45.8156 32.4616 42.8262 35.481 44.0854 27.234C44.1331 26.9804 44.321 25.8263 44.3822 25.4998C44.3822 25.4998 44.3795 24.5312 44.3821 24.0209C44.3912 22.2269 43.9846 20.7808 43.326 19.6671C43.6456 19.5359 43.9539 19.3788 44.2478 19.1973C44.4996 19.0413 44.7513 18.8655 44.9912 18.6621C45.1131 18.5597 45.2317 18.4534 45.3469 18.3434C45.463 18.2315 45.5735 18.1115 45.683 17.9886C45.7923 17.8635 45.8975 17.7349 45.9982 17.6029C46.0989 17.4676 46.194 17.3283 46.2834 17.1854L46.3337 17.1047L46.3592 17.0612L46.3848 17.0176L46.4282 16.9392C46.4825 16.8401 46.5325 16.7386 46.578 16.6352C46.6645 16.4421 46.7292 16.2424 46.7814 16.0425C46.9875 15.2392 46.9577 14.431 46.7558 13.6886Z" fill="#D19B61"/>
<path d="M7.8314 21.3115C8.01887 21.7447 7.81686 22.2491 7.38107 22.4304C6.69655 22.7152 5.68821 23.0353 4.81324 22.9366C3.15146 22.7491 1.60153 21.943 1.33319 20.1611C1.06484 18.3792 0.436602 16.3648 4.15741 16.7845C6.12649 17.0066 7.19141 19.8324 7.8314 21.3115Z" fill="#EADFD6"/>
<path d="M11.723 15.0033C11.4003 16.0244 11.9117 16.6519 11.6318 17.7248C11.6203 17.7718 11.6079 17.8188 11.593 17.8657C11.2371 18.9917 10.0358 19.6161 8.90984 19.2602C7.78385 18.9043 7.1595 17.703 7.51541 16.577C7.75397 15.822 7.84452 15.9993 8.00319 15.3578C8.15181 14.7573 8.06346 14.5422 8.32543 13.9296C8.62197 12.9914 9.62284 12.4711 10.5611 12.7676C11.4994 13.0642 12.0195 14.0651 11.723 15.0033ZM5.09699 21.1564C5.11669 21.1587 5.13664 21.157 5.15569 21.1515C5.17474 21.146 5.19252 21.1368 5.20802 21.1245C5.22353 21.1121 5.23644 21.0968 5.24604 21.0795C5.25563 21.0621 5.26171 21.0431 5.26394 21.0234C5.26616 21.0037 5.26448 20.9837 5.259 20.9647C5.25351 20.9456 5.24433 20.9278 5.23197 20.9123C5.21961 20.8968 5.20432 20.8839 5.18698 20.8743C5.16963 20.8647 5.15056 20.8586 5.13086 20.8564C5.09107 20.8519 5.05113 20.8634 5.01982 20.8884C4.98852 20.9133 4.9684 20.9497 4.96391 20.9895C4.95942 21.0293 4.97092 21.0692 4.99588 21.1005C5.02083 21.1318 5.0572 21.1519 5.09699 21.1564ZM4.93682 19.463C4.95652 19.4652 4.97646 19.4635 4.99551 19.458C5.01457 19.4526 5.03235 19.4434 5.04785 19.431C5.06335 19.4187 5.07627 19.4034 5.08586 19.386C5.09546 19.3687 5.10154 19.3496 5.10376 19.3299C5.10599 19.3102 5.10431 19.2903 5.09883 19.2712C5.09334 19.2522 5.08416 19.2344 5.0718 19.2189C5.05944 19.2034 5.04415 19.1905 5.0268 19.1809C5.00945 19.1713 4.99039 19.1652 4.97069 19.163C4.9309 19.1585 4.89096 19.17 4.85965 19.1949C4.82834 19.2199 4.80823 19.2563 4.80374 19.296C4.79925 19.3358 4.81075 19.3758 4.8357 19.4071C4.86066 19.4384 4.89703 19.4585 4.93682 19.463ZM3.89819 20.4293C3.91789 20.4315 3.93784 20.4298 3.95689 20.4244C3.97594 20.4189 3.99372 20.4097 4.00923 20.3973C4.02473 20.385 4.03764 20.3697 4.04724 20.3523C4.05683 20.335 4.06291 20.3159 4.06514 20.2962C4.06736 20.2765 4.06568 20.2566 4.0602 20.2375C4.05471 20.2185 4.04553 20.2007 4.03317 20.1852C4.02082 20.1697 4.00553 20.1568 3.98818 20.1472C3.97083 20.1376 3.95176 20.1315 3.93206 20.1293C3.89227 20.1248 3.85233 20.1363 3.82102 20.1612C3.78972 20.1862 3.7696 20.2226 3.76511 20.2623C3.76062 20.3021 3.77212 20.3421 3.79708 20.3734C3.82203 20.4047 3.85841 20.4248 3.89819 20.4293Z" fill="#AF773F"/>
<path d="M1.59954 16.7608L2.51853 16.888C2.98012 16.9332 3.44271 16.9686 3.44271 16.9686C3.57437 16.9787 3.69992 17.0284 3.80291 17.111C3.90591 17.1936 3.98154 17.3055 4.01992 17.4318C4.0583 17.5582 4.05763 17.6932 4.018 17.8191C3.97837 17.9451 3.90162 18.0561 3.79782 18.1378L3.26381 18.5544C3.26381 18.5544 3.13591 18.6542 2.95452 18.7106C2.86487 18.7297 2.7567 18.7837 2.64852 18.773C2.53965 18.7686 2.42022 18.7934 2.30666 18.7654L1.97287 18.6869C1.86798 18.6475 1.77216 18.5914 1.68899 18.5531C1.19104 18.4034 1.03415 16.6969 1.59954 16.7608ZM9.9725 15.145C9.86169 15.1325 9.74949 15.1419 9.64233 15.1728C9.53517 15.2037 9.43513 15.2553 9.34793 15.3248C9.26074 15.3944 9.18809 15.4804 9.13414 15.578C9.08018 15.6756 9.04598 15.7828 9.03348 15.8937L8.89184 17.1497C8.87934 17.2606 8.88879 17.3727 8.91964 17.4799C8.9505 17.5871 9.00217 17.6871 9.07169 17.7743C9.14121 17.8615 9.22722 17.9342 9.32482 17.9881C9.42242 18.0421 9.52969 18.0763 9.6405 18.0888C9.75132 18.1013 9.86351 18.0918 9.97068 18.061C10.0778 18.0301 10.1779 17.9784 10.2651 17.9089C10.3523 17.8394 10.4249 17.7534 10.4789 17.6558C10.5328 17.5582 10.567 17.4509 10.5795 17.3401L10.7212 16.084C10.7337 15.9732 10.7242 15.861 10.6934 15.7538C10.6625 15.6467 10.6109 15.5466 10.5414 15.4594C10.4718 15.3722 10.3858 15.2996 10.2882 15.2456C10.1906 15.1917 10.0833 15.1575 9.9725 15.145Z" fill="#2B3B47"/>
<path d="M12.4169 9.50152C12.4042 7.22335 13.2894 5.88022 13.96 8.0014C14.2614 8.95496 14.3823 9.95275 14.2086 10.8689C14.0495 11.7082 12.8774 11.6867 12.7078 10.9484C12.6126 10.5335 12.4202 10.0896 12.4169 9.50152Z" fill="#FF9DDD"/>
</svg>
