<svg width="34" height="34" viewBox="0 0 34 34" fill="none" xmlns="http://www.w3.org/2000/svg">
<g clip-path="url(#clip0_2504_6769)">
<path d="M22.6672 22.6667C22.6672 22.9469 22.5841 23.2208 22.4284 23.4537C22.2727 23.6867 22.0515 23.8683 21.7926 23.9755C21.5338 24.0827 21.2489 24.1108 20.9741 24.0561C20.6993 24.0014 20.4469 23.8665 20.2488 23.6684C20.0506 23.4703 19.9157 23.2179 19.861 22.943C19.8064 22.6682 19.8344 22.3834 19.9417 22.1245C20.0489 21.8657 20.2305 21.6444 20.4634 21.4888C20.6964 21.3331 20.9703 21.25 21.2505 21.25C21.6262 21.25 21.9865 21.3993 22.2522 21.6649C22.5179 21.9306 22.6672 22.2909 22.6672 22.6667ZM26.9172 21.25C26.637 21.25 26.3631 21.3331 26.1301 21.4888C25.8971 21.6444 25.7155 21.8657 25.6083 22.1245C25.5011 22.3834 25.473 22.6682 25.5277 22.943C25.5824 23.2179 25.7173 23.4703 25.9154 23.6684C26.1135 23.8665 26.366 24.0014 26.6408 24.0561C26.9156 24.1108 27.2004 24.0827 27.4593 23.9755C27.7181 23.8683 27.9394 23.6867 28.0951 23.4537C28.2507 23.2208 28.3338 22.9469 28.3338 22.6667C28.3338 22.2909 28.1846 21.9306 27.9189 21.6649C27.6532 21.3993 27.2929 21.25 26.9172 21.25ZM24.0838 17C23.8036 17 23.5297 17.0831 23.2968 17.2388C23.0638 17.3944 22.8822 17.6157 22.775 17.8745C22.6678 18.1334 22.6397 18.4182 22.6944 18.693C22.749 18.9678 22.884 19.2203 23.0821 19.4184C23.2802 19.6165 23.5326 19.7514 23.8074 19.8061C24.0822 19.8608 24.3671 19.8327 24.626 19.7255C24.8848 19.6183 25.1061 19.4367 25.2617 19.2037C25.4174 18.9708 25.5005 18.6969 25.5005 18.4167C25.5005 18.0409 25.3512 17.6806 25.0856 17.4149C24.8199 17.1493 24.4595 17 24.0838 17ZM34.0005 22.6667C34.0028 24.8314 33.3844 26.9514 32.2186 28.7754C31.0528 30.5994 29.3885 32.0509 27.423 32.9578C25.4574 33.8648 23.273 34.1892 21.1287 33.8926C18.9844 33.5959 16.9701 32.6907 15.3246 31.2843C14.9066 32.1186 14.3776 32.8925 13.7521 33.5849L13.337 34H3.66399L3.24891 33.5849C1.01021 30.9387 -0.149596 27.5463 0.000490116 24.0833C0.170588 21.3404 1.01537 18.682 2.45982 16.3441C3.42547 14.8295 4.03751 13.1169 4.25049 11.3333C4.08893 10.2833 3.8261 9.25143 3.46566 8.25208C3.14253 7.42173 2.93009 6.55246 2.83382 5.66667C2.83382 4.16377 3.43085 2.72243 4.49355 1.65973C5.55626 0.597022 6.9976 0 8.50049 0C10.0034 0 11.4447 0.597022 12.5074 1.65973C13.5701 2.72243 14.1672 4.16377 14.1672 5.66667C14.0709 6.55246 13.8584 7.42173 13.5353 8.25208C13.1749 9.25143 12.912 10.2833 12.7505 11.3333C12.8714 12.7534 13.3106 14.1281 14.0354 15.3552C15.5317 13.5807 17.5376 12.3093 19.781 11.7134C22.0245 11.1176 24.3969 11.2261 26.5765 12.0243C28.7562 12.8225 30.6376 14.2718 31.9656 16.1756C33.2937 18.0793 34.0041 20.3455 34.0005 22.6667ZM5.66716 5.66667C5.68982 5.87917 5.96607 6.76033 6.16866 7.4035C6.64734 8.66685 6.95512 9.98848 7.08382 11.3333H9.91716C10.0459 9.98848 10.3536 8.66685 10.8323 7.4035C11.0315 6.82132 11.1989 6.22875 11.3338 5.62842C11.3288 4.87697 11.0254 4.15832 10.4904 3.63055C9.95549 3.10278 9.23281 2.80914 8.48136 2.81421C7.72992 2.81928 7.01126 3.12266 6.4835 3.6576C5.95573 4.19254 5.66208 4.91522 5.66716 5.66667ZM14.1672 24.0833C13.9791 21.7978 13.2445 19.591 12.0252 17.6488C11.4116 16.5286 10.8813 15.3647 10.4385 14.1667H6.56249C6.11966 15.3647 5.58934 16.5286 4.97582 17.6488C3.75651 19.591 3.02187 21.7978 2.83382 24.0833C2.74873 26.606 3.47682 29.0893 4.91066 31.1667H12.0917C13.5252 29.0892 14.2528 26.6059 14.1672 24.0833ZM31.1672 22.6667C31.1696 20.8199 30.5697 19.0227 29.4583 17.5477C28.347 16.0727 26.7848 15.0005 25.0089 14.4937C23.233 13.987 21.3403 14.0733 19.6179 14.7396C17.8954 15.4059 16.4374 16.6158 15.4648 18.1857C16.4137 20.0111 16.9386 22.027 17.0005 24.0833C17.0068 25.5491 16.8162 27.009 16.4338 28.424C17.592 29.6807 19.1025 30.5587 20.7677 30.943C22.4329 31.3274 24.1754 31.2002 25.7672 30.5782C27.359 29.9562 28.726 28.8683 29.6894 27.4567C30.6529 26.0451 31.1679 24.3757 31.1672 22.6667Z" fill="#0B1956"/>
</g>
<defs>
<clipPath id="clip0_2504_6769">
<rect width="34" height="34" fill="white"/>
</clipPath>
</defs>
</svg>
