<svg width="24" height="24" viewBox="0 0 24 24" fill="none" xmlns="http://www.w3.org/2000/svg">
<g clip-path="url(#clip0_2172_6443)">
<path d="M8.69999 17.9996H2.99999C1.50699 17.9996 -7.62939e-06 16.8656 -7.62939e-06 14.3336V9.29365C0.0210195 6.99582 0.881419 4.78496 2.41917 3.07739C3.95692 1.36982 6.06591 0.283377 8.34899 0.0226448C9.63735 -0.0708809 10.9308 0.114026 12.1413 0.564802C13.3518 1.01558 14.4512 1.72166 15.3646 2.63506C16.278 3.54847 16.9841 4.6478 17.4348 5.85834C17.8856 7.06889 18.0705 8.36229 17.977 9.65065C17.7159 11.9347 16.6286 14.0444 14.9198 15.5822C13.211 17.12 10.9988 17.9799 8.69999 17.9996ZM20 9.07965H19.988C19.988 9.31665 19.988 9.55365 19.976 9.79165C19.59 15.1996 14.647 19.7776 9.08399 19.9806V19.9956C9.7846 21.2108 10.7924 22.2203 12.0062 22.9231C13.2201 23.6258 14.5974 23.9971 16 23.9996H21C21.7956 23.9996 22.5587 23.6836 23.1213 23.121C23.6839 22.5584 24 21.7953 24 20.9996V15.9996C23.9986 14.5967 23.6282 13.2189 22.9261 12.0043C22.2241 10.7897 21.2149 9.7811 20 9.07965Z" fill="#0B1956"/>
</g>
<defs>
<clipPath id="clip0_2172_6443">
<rect width="24" height="24" fill="white"/>
</clipPath>
</defs>
</svg>
