<svg width="27" height="27" viewBox="0 0 27 27" fill="none" xmlns="http://www.w3.org/2000/svg">
<g clip-path="url(#clip0_2964_10413)">
<path d="M16.3126 7.87488C15.2645 7.85858 14.2529 8.25919 13.5001 8.98863C12.9213 8.44819 12.1956 8.09106 11.4144 7.9622C10.6331 7.83333 9.83113 7.93849 9.10948 8.26443C8.38784 8.59037 7.77875 9.12253 7.35891 9.79391C6.93907 10.4653 6.72724 11.2459 6.75009 12.0374C6.75009 15.7004 12.2333 19.6154 12.8588 20.0485C13.0472 20.1791 13.2709 20.2492 13.5001 20.2492C13.7293 20.2492 13.953 20.1791 14.1413 20.0485C14.7668 19.6154 20.2501 15.7004 20.2501 12.0374C20.2779 10.9638 19.8792 9.92294 19.1412 9.14276C18.4032 8.36257 17.3861 7.90666 16.3126 7.87488ZM13.5001 17.7321C11.5415 16.2359 9.00009 13.7271 9.00009 12.0374C8.91459 9.78063 12.2772 9.33738 12.3751 11.7606V12.3749C12.3751 12.6732 12.4936 12.9594 12.7046 13.1704C12.9156 13.3814 13.2017 13.4999 13.5001 13.4999C13.7985 13.4999 14.0846 13.3814 14.2956 13.1704C14.5066 12.9594 14.6251 12.6732 14.6251 12.3749V11.7606C14.723 9.33963 18.0856 9.78063 18.0001 12.0374C18.0001 13.7249 15.4587 16.2359 13.5001 17.7321ZM14.4406 0.0313773C12.512 -0.103389 10.577 0.177629 8.76648 0.855419C6.95593 1.53321 5.31208 2.59196 3.94613 3.96005C2.58017 5.32813 1.52399 6.97364 0.849025 8.78524C0.174061 10.5968 -0.103937 12.5323 0.0338389 14.4606C0.528839 21.6089 6.84234 26.9999 14.7185 26.9999H21.3751C22.8664 26.9981 24.2961 26.4049 25.3506 25.3504C26.4051 24.2959 26.9983 22.8662 27.0001 21.3749V13.8824C27.0418 10.4146 25.7702 7.05935 23.4406 4.49022C21.1111 1.92109 17.8959 0.328226 14.4406 0.0313773V0.0313773ZM24.7501 21.3749C24.7501 22.27 24.3945 23.1284 23.7616 23.7614C23.1286 24.3943 22.2702 24.7499 21.3751 24.7499H14.7185C7.93021 24.7499 2.70009 20.3624 2.27821 14.3054C2.16272 12.6978 2.39401 11.0841 2.95642 9.57363C3.51883 8.06318 4.39923 6.6912 5.53802 5.55061C6.6768 4.41001 8.04737 3.52742 9.55693 2.96261C11.0665 2.3978 12.6798 2.16394 14.2876 2.27688C17.1749 2.53229 19.8585 3.8709 21.7993 6.02375C23.7401 8.1766 24.7943 10.9842 24.7501 13.8824V21.3749Z" fill="#142553"/>
</g>
<defs>
<clipPath id="clip0_2964_10413">
<rect width="27" height="27" fill="white"/>
</clipPath>
</defs>
</svg>
