<svg width="30" height="30" viewBox="0 0 30 30" fill="none" xmlns="http://www.w3.org/2000/svg">
<g clip-path="url(#clip0_2504_6784)">
<path d="M5 29.9997L6.66625 26.666L10 24.9997L6.66625 23.3335L5 19.9998L3.33375 23.3335L0 24.9997L3.33375 26.666L5 29.9997Z" fill="#0B1956"/>
<path d="M26.666 26.666L29.9997 24.9997L26.666 23.3335L24.9997 19.9998L23.3335 23.3335L19.9998 24.9997L23.3335 26.666L24.9997 29.9997L26.666 26.666Z" fill="#0B1956"/>
<path d="M16.6665 3.33375L15.0002 0L13.334 3.33375L10.0002 5L13.334 6.66625L15.0002 10L16.6665 6.66625L20.0002 5L16.6665 3.33375Z" fill="#0B1956"/>
<path d="M6.24975 17.5C6.94011 17.5 7.49975 16.9404 7.49975 16.25C7.49975 15.5596 6.94011 15 6.24975 15C5.5594 15 4.99976 15.5596 4.99976 16.25C4.99976 16.9404 5.5594 17.5 6.24975 17.5Z" fill="#0B1956"/>
<path d="M1.25 12.5002C1.94036 12.5002 2.5 11.9406 2.5 11.2502C2.5 10.5599 1.94036 10.0002 1.25 10.0002C0.559644 10.0002 0 10.5599 0 11.2502C0 11.9406 0.559644 12.5002 1.25 12.5002Z" fill="#0B1956"/>
<path d="M6.24975 7.49975C6.94011 7.49975 7.49975 6.94011 7.49975 6.24975C7.49975 5.5594 6.94011 4.99976 6.24975 4.99976C5.5594 4.99976 4.99976 5.5594 4.99976 6.24975C4.99976 6.94011 5.5594 7.49975 6.24975 7.49975Z" fill="#0B1956"/>
<path d="M1.25 2.5C1.94036 2.5 2.5 1.94036 2.5 1.25C2.5 0.559644 1.94036 0 1.25 0C0.559644 0 0 0.559644 0 1.25C0 1.94036 0.559644 2.5 1.25 2.5Z" fill="#0B1956"/>
<path d="M28.7497 17.5C29.4401 17.5 29.9997 16.9404 29.9997 16.25C29.9997 15.5596 29.4401 15 28.7497 15C28.0594 15 27.4998 15.5596 27.4998 16.25C27.4998 16.9404 28.0594 17.5 28.7497 17.5Z" fill="#0B1956"/>
<path d="M23.75 12.5002C24.4404 12.5002 25 11.9406 25 11.2502C25 10.5599 24.4404 10.0002 23.75 10.0002C23.0596 10.0002 22.5 10.5599 22.5 11.2502C22.5 11.9406 23.0596 12.5002 23.75 12.5002Z" fill="#0B1956"/>
<path d="M28.7497 7.49975C29.4401 7.49975 29.9997 6.94011 29.9997 6.24975C29.9997 5.5594 29.4401 4.99976 28.7497 4.99976C28.0594 4.99976 27.4998 5.5594 27.4998 6.24975C27.4998 6.94011 28.0594 7.49975 28.7497 7.49975Z" fill="#0B1956"/>
<path d="M23.75 2.5C24.4404 2.5 25 1.94036 25 1.25C25 0.559644 24.4404 0 23.75 0C23.0596 0 22.5 0.559644 22.5 1.25C22.5 1.94036 23.0596 2.5 23.75 2.5Z" fill="#0B1956"/>
<path d="M17.4998 29.9997C18.1901 29.9997 18.7498 29.4401 18.7498 28.7497C18.7498 28.0594 18.1901 27.4998 17.4998 27.4998C16.8094 27.4998 16.2498 28.0594 16.2498 28.7497C16.2498 29.4401 16.8094 29.9997 17.4998 29.9997Z" fill="#0B1956"/>
<path d="M12.5 25C13.1904 25 13.75 24.4404 13.75 23.75C13.75 23.0596 13.1904 22.5 12.5 22.5C11.8096 22.5 11.25 23.0596 11.25 23.75C11.25 24.4404 11.8096 25 12.5 25Z" fill="#0B1956"/>
<path d="M17.4998 20.0003C18.1901 20.0003 18.7498 19.4406 18.7498 18.7503C18.7498 18.0599 18.1901 17.5002 17.4998 17.5002C16.8094 17.5002 16.2498 18.0599 16.2498 18.7503C16.2498 19.4406 16.8094 20.0003 17.4998 20.0003Z" fill="#0B1956"/>
<path d="M12.5 14.9998C13.1904 14.9998 13.75 14.4401 13.75 13.7498C13.75 13.0594 13.1904 12.4998 12.5 12.4998C11.8096 12.4998 11.25 13.0594 11.25 13.7498C11.25 14.4401 11.8096 14.9998 12.5 14.9998Z" fill="#0B1956"/>
</g>
<defs>
<clipPath id="clip0_2504_6784">
<rect width="30" height="30" fill="white"/>
</clipPath>
</defs>
</svg>
