<svg width="40" height="40" viewBox="0 0 40 40" fill="none" xmlns="http://www.w3.org/2000/svg">
<g clip-path="url(#clip0_2504_6858)">
<path d="M26.839 1.71003L28.0785 5.24925L25.7191 6.07561L24.4795 2.5364L5.60372 9.14732L6.84326 12.6865L4.48379 13.5129L3.24424 9.97368L0.884766 10.8L10.8011 39.1137L13.1606 38.2874L11.9211 34.7482L14.2805 33.9218L15.5201 37.461L34.3959 30.8501L33.1563 27.3109L35.5158 26.4845L36.7554 30.0237L39.1148 29.1974L29.1985 0.883669L26.839 1.71003ZM28.9049 7.60872L29.7313 9.9682L27.3718 10.7946L26.5454 8.43509L28.9049 7.60872ZM29.8509 17.873L32.2104 17.0466L33.0367 19.4061L30.6773 20.2325L29.8509 17.873ZM29.0245 15.5135L28.1982 13.154L30.5576 12.3277L31.384 14.6871L29.0245 15.5135ZM22.9464 5.72224L26.665 16.3399L12.5082 21.2981L8.78955 10.6804L22.9464 5.72224ZM7.78925 22.9508L6.96288 20.5913L9.32236 19.765L10.1487 22.1244L7.78925 22.9508ZM10.9751 24.4839L11.8015 26.8434L9.44198 27.6697L8.61561 25.3103L10.9751 24.4839ZM7.66963 15.046L8.49599 17.4055L6.13652 18.2318L5.31015 15.8724L7.66963 15.046ZM11.0947 32.3887L10.2683 30.0292L12.6278 29.2029L13.4542 31.5623L11.0947 32.3887ZM17.0532 34.2752L13.3346 23.6575L27.4914 18.6993L31.2101 29.317L17.0532 34.2752ZM32.33 24.9514L31.5036 22.5919L33.8631 21.7656L34.6895 24.125L32.33 24.9514Z" fill="#0B1956"/>
</g>
<defs>
<clipPath id="clip0_2504_6858">
<rect width="30" height="30" fill="white" transform="translate(0.884766 10.8) rotate(-19.3019)"/>
</clipPath>
</defs>
</svg>
