<svg width="40" height="40" viewBox="0 0 40 40" fill="none" xmlns="http://www.w3.org/2000/svg">
<path d="M39.3376 13.8969L20.5876 3.89691C20.4067 3.80061 20.205 3.75024 20.0001 3.75024C19.7952 3.75024 19.5935 3.80061 19.4126 3.89691L0.662598 13.8969C0.462605 14.0035 0.295349 14.1624 0.178723 14.3568C0.0620966 14.5511 0.000488281 14.7734 0.000488281 15C0.000488281 15.2267 0.0620966 15.449 0.178723 15.6433C0.295349 15.8376 0.462605 15.9966 0.662598 16.1032L5.0001 18.4172V25.9828C4.9988 26.5968 5.22477 27.1896 5.63447 27.6469C7.68135 29.9266 12.2673 33.75 20.0001 33.75C22.5641 33.7712 25.1089 33.3068 27.5001 32.3813V37.5C27.5001 37.8316 27.6318 38.1495 27.8662 38.3839C28.1006 38.6183 28.4186 38.75 28.7501 38.75C29.0816 38.75 29.3996 38.6183 29.634 38.3839C29.8684 38.1495 30.0001 37.8316 30.0001 37.5V31.1735C31.6301 30.2325 33.1031 29.0426 34.3657 27.6469C34.7754 27.1896 35.0014 26.5968 35.0001 25.9828V18.4172L39.3376 16.1032C39.5376 15.9966 39.7048 15.8376 39.8215 15.6433C39.9381 15.449 39.9997 15.2267 39.9997 15C39.9997 14.7734 39.9381 14.5511 39.8215 14.3568C39.7048 14.1624 39.5376 14.0035 39.3376 13.8969ZM20.0001 31.25C13.2392 31.25 9.2626 27.9469 7.5001 25.9828V19.75L19.4126 26.1032C19.5935 26.1995 19.7952 26.2498 20.0001 26.2498C20.205 26.2498 20.4067 26.1995 20.5876 26.1032L27.5001 22.4172V29.6578C25.5313 30.5766 23.0501 31.25 20.0001 31.25ZM32.5001 25.9766C31.7508 26.8081 30.9124 27.5547 30.0001 28.2032V21.0828L32.5001 19.75V25.9766ZM29.3751 18.5844L29.3407 18.5641L20.5907 13.8969C20.2988 13.7478 19.96 13.7193 19.6472 13.8176C19.3345 13.916 19.0729 14.1332 18.9188 14.4225C18.7648 14.7119 18.7305 15.0501 18.8234 15.3645C18.9164 15.6789 19.1291 15.9441 19.4157 16.1032L26.7188 20L20.0001 23.5828L3.90635 15L20.0001 6.41722L36.0938 15L29.3751 18.5844Z" fill="#091F5B"/>
</svg>
