<svg width="30" height="30" viewBox="0 0 30 30" fill="none" xmlns="http://www.w3.org/2000/svg">
<g clip-path="url(#clip0_2504_6817)">
<path d="M28.9012 8.90257L25.8837 5.88382L28.3837 3.38382L26.6162 1.61632L24.1162 4.11632L21.0987 1.09882C20.7505 0.750531 20.337 0.474252 19.882 0.285757C19.427 0.0972618 18.9393 0.000244141 18.4468 0.000244141C17.9543 0.000244141 17.4666 0.0972618 17.0116 0.285757C16.5566 0.474252 16.1432 0.750531 15.7949 1.09882L12.2599 4.63382L17.9287 10.3038L10.3037 17.9288L4.63368 12.2601L1.09868 15.7951C0.395665 16.4983 0.000732422 17.452 0.000732422 18.4463C0.000732422 19.4407 0.395665 20.3943 1.09868 21.0976L4.11618 24.1163L1.61618 26.6163L3.38368 28.3838L5.88368 25.8838L8.90118 28.9013C9.24941 29.2496 9.66283 29.5259 10.1178 29.7144C10.5729 29.9029 11.0605 29.9999 11.5531 29.9999C12.0456 29.9999 12.5333 29.9029 12.9883 29.7144C13.4433 29.5259 13.8567 29.2496 14.2049 28.9013L17.7399 25.3663L12.0712 19.6963L19.6962 12.0713L25.3649 17.7401L28.8999 14.2051C29.6029 13.5018 29.9979 12.5482 29.9979 11.5538C29.9979 10.5595 29.6029 9.6058 28.8999 8.90257H28.9012ZM12.4374 27.1338C12.3213 27.25 12.1835 27.3422 12.0317 27.4051C11.88 27.468 11.7173 27.5004 11.5531 27.5004C11.3888 27.5004 11.2261 27.468 11.0744 27.4051C10.9226 27.3422 10.7848 27.25 10.6687 27.1338L2.86618 19.3301C2.63184 19.0957 2.5002 18.7778 2.5002 18.4463C2.5002 18.1149 2.63184 17.797 2.86618 17.5626L4.63368 15.7951L14.2049 25.3663L12.4374 27.1338ZM27.1337 12.4363L25.3662 14.2051L15.7949 4.63382L17.5624 2.86632C17.6785 2.7501 17.8164 2.6579 17.9681 2.59499C18.1199 2.53209 18.2825 2.49971 18.4468 2.49971C18.6111 2.49971 18.7737 2.53209 18.9255 2.59499C19.0772 2.6579 19.2151 2.7501 19.3312 2.86632L27.1337 10.6701C27.3676 10.9044 27.499 11.222 27.499 11.5532C27.499 11.8843 27.3676 12.202 27.1337 12.4363V12.4363Z" fill="#0B1956"/>
</g>
<defs>
<clipPath id="clip0_2504_6817">
<rect width="30" height="30" fill="white"/>
</clipPath>
</defs>
</svg>
