<svg width="36" height="36" viewBox="0 0 36 36" fill="none" xmlns="http://www.w3.org/2000/svg">
<path d="M31.4998 18.6355V16.4995C31.4998 12.9191 30.0775 9.48531 27.5457 6.95357C25.014 4.42183 21.5802 2.99951 17.9998 2.99951C14.4194 2.99951 10.9856 4.42183 8.45386 6.95357C5.92212 9.48531 4.4998 12.9191 4.4998 16.4995V18.6355C2.92654 19.3283 1.639 20.5404 0.852736 22.0691C0.0664678 23.5978 -0.170805 25.3502 0.18064 27.0329C0.532085 28.7156 1.45091 30.2265 2.78331 31.3127C4.1157 32.3989 5.78078 32.9944 7.4998 32.9995H10.4998V17.9995H7.4998V16.4995C7.4998 13.7147 8.60605 11.044 10.5752 9.07489C12.5443 7.10576 15.215 5.99951 17.9998 5.99951C20.7846 5.99951 23.4553 7.10576 25.4244 9.07489C27.3936 11.044 28.4998 13.7147 28.4998 16.4995V17.9995H25.4998V29.9995H19.4998V32.9995H28.4998C30.2188 32.9944 31.8839 32.3989 33.2163 31.3127C34.5487 30.2265 35.4675 28.7156 35.819 27.0329C36.1704 25.3502 35.9331 23.5978 35.1469 22.0691C34.3606 20.5404 33.0731 19.3283 31.4998 18.6355ZM7.4998 29.9995C6.30633 29.9995 5.16174 29.5254 4.31782 28.6815C3.47391 27.8376 2.9998 26.693 2.9998 25.4995C2.9998 24.306 3.47391 23.1614 4.31782 22.3175C5.16174 21.4736 6.30633 20.9995 7.4998 20.9995V29.9995ZM28.4998 29.9995V20.9995C29.6933 20.9995 30.8379 21.4736 31.6818 22.3175C32.5257 23.1614 32.9998 24.306 32.9998 25.4995C32.9998 26.693 32.5257 27.8376 31.6818 28.6815C30.8379 29.5254 29.6933 29.9995 28.4998 29.9995Z" fill="#0B1956"/>
</svg>
