<svg width="24" height="23" viewBox="0 0 24 23" fill="none" xmlns="http://www.w3.org/2000/svg">
<g clip-path="url(#clip0_2451_6732)">
<path d="M12 14.6382C10.3432 14.6382 9 15.8825 9 17.4174V22.9759H15V17.4174C15 15.8825 13.6568 14.6382 12 14.6382Z" fill="#0B1956"/>
<path d="M17 17.418V22.9765H21C22.6568 22.9765 24 21.7322 24 20.1972V11.7474C24.0002 11.2661 23.7983 10.8036 23.437 10.4578L14.939 1.94683C13.4396 0.443865 10.9089 0.351585 9.28655 1.74069C9.20949 1.80669 9.13523 1.87544 9.06403 1.94683L0.581016 10.4551C0.208734 10.8023 -0.000140554 11.2719 7.09607e-08 11.7613V20.1972C7.09607e-08 21.7322 1.34316 22.9765 3 22.9765H6.99998V17.418C7.01869 14.8918 9.22027 12.8289 11.8784 12.7695C14.6255 12.7081 16.9791 14.8062 17 17.418Z" fill="#0B1956"/>
<path d="M12 14.6382C10.3432 14.6382 9 15.8825 9 17.4174V22.9759H15V17.4174C15 15.8825 13.6568 14.6382 12 14.6382Z" fill="#0B1956"/>
</g>
<defs>
<clipPath id="clip0_2451_6732">
<rect y="0.749512" width="24" height="22.234" rx="3" fill="white"/>
</clipPath>
</defs>
</svg>
