<svg width="24" height="23" viewBox="0 0 24 23" fill="none" xmlns="http://www.w3.org/2000/svg">
<g clip-path="url(#clip0_2456_6557)">
<path d="M19 3.54963C19 3.54222 19 3.53666 19 3.52925V1.67642C19 1.43072 18.8946 1.19508 18.7071 1.02134C18.5196 0.847604 18.2652 0.75 18 0.75C17.7348 0.75 17.4804 0.847604 17.2929 1.02134C17.1054 1.19508 17 1.43072 17 1.67642V2.69547C16.6709 2.63356 16.3358 2.60252 16 2.60283H15V1.67642C15 1.43072 14.8946 1.19508 14.7071 1.02134C14.5196 0.847604 14.2652 0.75 14 0.75C13.7348 0.75 13.4804 0.847604 13.2929 1.02134C13.1054 1.19508 13 1.43072 13 1.67642V2.60283H11V1.67642C11 1.43072 10.8946 1.19508 10.7071 1.02134C10.5196 0.847604 10.2652 0.75 10 0.75C9.73478 0.75 9.48043 0.847604 9.29289 1.02134C9.10536 1.19508 9 1.43072 9 1.67642V2.60283H8C7.66415 2.60252 7.32913 2.63356 7 2.69547V1.67642C7 1.43072 6.89464 1.19508 6.70711 1.02134C6.51957 0.847604 6.26522 0.75 6 0.75C5.73478 0.75 5.48043 0.847604 5.29289 1.02134C5.10536 1.19508 5 1.43072 5 1.67642V3.52925V3.54963C4.38078 3.97798 3.8777 4.53398 3.53057 5.17362C3.18343 5.81326 3.00178 6.51898 3 7.23491V18.3519C3.00159 19.58 3.52888 20.7573 4.46622 21.6257C5.40356 22.494 6.67441 22.9825 8 22.984H16C17.3256 22.9825 18.5964 22.494 19.5338 21.6257C20.4711 20.7573 20.9984 19.58 21 18.3519V7.23491C20.9982 6.51898 20.8166 5.81326 20.4694 5.17362C20.1223 4.53398 19.6192 3.97798 19 3.54963ZM19 18.3519C19 19.089 18.6839 19.7959 18.1213 20.3171C17.5587 20.8383 16.7956 21.1312 16 21.1312H8C7.20435 21.1312 6.44129 20.8383 5.87868 20.3171C5.31607 19.7959 5 19.089 5 18.3519V7.23491C5 6.49781 5.31607 5.7909 5.87868 5.26969C6.44129 4.74848 7.20435 4.45566 8 4.45566H16C16.7956 4.45566 17.5587 4.74848 18.1213 5.26969C18.6839 5.7909 19 6.49781 19 7.23491V18.3519ZM17 8.16133C17 8.40703 16.8946 8.64267 16.7071 8.8164C16.5196 8.99014 16.2652 9.08774 16 9.08774H8C7.73478 9.08774 7.48043 8.99014 7.29289 8.8164C7.10536 8.64267 7 8.40703 7 8.16133C7 7.91563 7.10536 7.67999 7.29289 7.50625C7.48043 7.33252 7.73478 7.23491 8 7.23491H16C16.2652 7.23491 16.5196 7.33252 16.7071 7.50625C16.8946 7.67999 17 7.91563 17 8.16133ZM17 11.867C17 12.1127 16.8946 12.3483 16.7071 12.5221C16.5196 12.6958 16.2652 12.7934 16 12.7934H8C7.73478 12.7934 7.48043 12.6958 7.29289 12.5221C7.10536 12.3483 7 12.1127 7 11.867C7 11.6213 7.10536 11.3857 7.29289 11.2119C7.48043 11.0382 7.73478 10.9406 8 10.9406H16C16.2652 10.9406 16.5196 11.0382 16.7071 11.2119C16.8946 11.3857 17 11.6213 17 11.867ZM13 15.5727C13 15.8184 12.8946 16.054 12.7071 16.2277C12.5196 16.4015 12.2652 16.4991 12 16.4991H8C7.73478 16.4991 7.48043 16.4015 7.29289 16.2277C7.10536 16.054 7 15.8184 7 15.5727C7 15.327 7.10536 15.0913 7.29289 14.9176C7.48043 14.7438 7.73478 14.6462 8 14.6462H12C12.2652 14.6462 12.5196 14.7438 12.7071 14.9176C12.8946 15.0913 13 15.327 13 15.5727Z" fill="#0B1956"/>
</g>
<defs>
<clipPath id="clip0_2456_6557">
<rect y="0.75" width="24" height="22.234" rx="3" fill="white"/>
</clipPath>
</defs>
</svg>
