<svg width="15" height="15" viewBox="0 0 15 15" fill="none" xmlns="http://www.w3.org/2000/svg">
<circle cx="7.5" cy="7.5" r="7.5" fill="#091F5B"/>
<g clip-path="url(#clip0_3117_7728)">
<path d="M10.558 7.20123L7.49986 9.0364L4.44173 7.20123C4.3754 7.16143 4.29598 7.14962 4.22093 7.16838C4.14588 7.18714 4.08136 7.23494 4.04157 7.30128C4.00177 7.36761 3.98995 7.44703 4.00871 7.52208C4.02747 7.59712 4.07528 7.66164 4.14161 7.70144L7.34994 9.62644C7.3953 9.6537 7.44723 9.66809 7.50015 9.66809C7.55307 9.66809 7.60499 9.6537 7.65036 9.62644L10.8587 7.70144C10.925 7.66164 10.9728 7.59712 10.9916 7.52208C11.0104 7.44703 10.9985 7.36761 10.9587 7.30128C10.9189 7.23494 10.8544 7.18714 10.7794 7.16838C10.7043 7.14962 10.6249 7.16143 10.5586 7.20123H10.558Z" fill="white"/>
<path d="M10.558 8.53327L7.49986 10.3681L4.44173 8.53327C4.40889 8.51356 4.37248 8.50051 4.3346 8.49488C4.29671 8.48924 4.25809 8.49112 4.22093 8.50041C4.18377 8.5097 4.1488 8.52622 4.11803 8.54902C4.08725 8.57182 4.06127 8.60046 4.04156 8.63331C4.02186 8.66615 4.00881 8.70256 4.00318 8.74044C3.99754 8.77833 3.99942 8.81695 4.00871 8.85411C4.02747 8.92916 4.07527 8.99368 4.14161 9.03348L7.34994 10.9585C7.3953 10.9857 7.44723 11.0001 7.50015 11.0001C7.55307 11.0001 7.60499 10.9857 7.65036 10.9585L10.8587 9.03348C10.925 8.99368 10.9728 8.92916 10.9916 8.85411C11.0103 8.77906 10.9985 8.69964 10.9587 8.63331C10.9189 8.56698 10.8544 8.51917 10.7794 8.50041C10.7043 8.48165 10.6249 8.49347 10.5586 8.53327H10.558Z" fill="white"/>
<path d="M4.14137 6.43752L7.05337 8.18489C7.18819 8.266 7.34256 8.30885 7.49991 8.30885C7.65725 8.30885 7.81162 8.266 7.94645 8.18489L10.8584 6.43752C10.9016 6.41159 10.9373 6.37494 10.962 6.33114C10.9868 6.28734 10.9998 6.23788 10.9998 6.18756C10.9998 6.13724 10.9868 6.08777 10.962 6.04397C10.9373 6.00018 10.9016 5.96353 10.8584 5.9376L7.94645 4.19022C7.81159 4.10921 7.65723 4.06641 7.49991 4.06641C7.34258 4.06641 7.18822 4.10921 7.05337 4.19022L4.14137 5.9376C4.09824 5.96353 4.06256 6.00018 4.03779 6.04397C4.01302 6.08777 4 6.13724 4 6.18756C4 6.23788 4.01302 6.28734 4.03779 6.33114C4.06256 6.37494 4.09824 6.41159 4.14137 6.43752V6.43752Z" fill="white"/>
</g>
<defs>
<clipPath id="clip0_3117_7728">
<rect width="7" height="7" fill="white" transform="translate(4 4)"/>
</clipPath>
</defs>
</svg>
