<svg width="31" height="31" viewBox="0 0 31 31" fill="none" xmlns="http://www.w3.org/2000/svg">
<g clip-path="url(#clip0_2504_6827)">
<path d="M7.04528 12.4696C6.75981 9.74037 5.18401 8.16064 3.38214 8.16064V8.16325C3.2734 8.16313 3.16477 8.1687 3.05664 8.18002C1.12301 8.37892 -0.257759 10.3087 0.0418878 13.2007C0.331241 15.9675 2.00391 18.0832 3.84199 18.0832C3.92524 18.0834 4.0085 18.0791 4.09126 18.0704C6.02876 17.8688 7.34753 15.3578 7.04528 12.4696ZM3.82128 15.4844C3.0662 14.8499 2.70317 13.9602 2.61101 12.932C2.61101 12.2816 2.60484 11.6398 2.89389 11.0617C3.05452 10.7596 3.25039 10.7543 3.32528 10.7465L3.38238 10.7456C3.81765 10.7456 4.34568 11.4892 4.47616 12.737C4.56553 13.7088 4.42778 14.707 3.82128 15.4844Z" fill="#0B1956"/>
<path d="M10.9368 10.9146C11.0285 10.9146 11.1189 10.9146 11.2106 10.9004C13.338 10.6782 14.7924 7.91923 14.4605 4.73913C14.1466 1.7386 12.4131 0 10.4317 0C10.3126 0.000121094 10.1937 0.00653906 10.0752 0.019375C7.94658 0.24025 6.42498 2.36248 6.75696 5.54385C7.07598 8.587 8.91273 10.9146 10.9368 10.9146ZM9.6761 3.04835C9.80622 2.79194 10.0558 2.61744 10.3413 2.58335C10.3714 2.58148 10.4016 2.58148 10.4317 2.58335C11.0311 2.58335 11.7234 3.41648 11.8913 5.00783C12.012 5.93341 11.8669 6.87419 11.4728 7.72033C11.2377 8.16596 11.0014 8.32096 10.9368 8.32744C10.6048 8.32744 9.53666 7.27604 9.32608 5.27133C9.19143 4.51201 9.31464 3.72951 9.6761 3.04835Z" fill="#0B1956"/>
<path d="M19.8461 10.9004C19.9378 10.9094 20.0295 10.9146 20.1199 10.9146C22.1414 10.9146 23.982 8.5896 24.2998 5.54385C24.6318 2.36248 23.1102 0.24025 20.9841 0.019375C20.8652 0.00653906 20.7458 6.05469e-05 20.6263 0C18.6436 0 16.9102 1.7386 16.5963 4.73913C16.2643 7.91923 17.7187 10.6808 19.8461 10.9004ZM19.1667 5.0065C19.332 3.41648 20.0218 2.58335 20.6263 2.58335C20.656 2.58142 20.6857 2.58142 20.7154 2.58335C21.0006 2.61714 21.2502 2.79115 21.3806 3.04708C21.7434 3.72781 21.8668 4.51074 21.7307 5.27006C21.5214 7.27471 20.4519 8.32617 20.1148 8.32617C20.0554 8.32617 19.819 8.16469 19.5839 7.71906C19.1897 6.87292 19.045 5.93196 19.1667 5.0065Z" fill="#0B1956"/>
<path d="M15.501 14.2083C9.6343 14.2083 3.87605 20.2029 3.8683 26.3099C3.70815 30.4419 7.22665 31.939 11.4892 30.4148C14.0877 29.5287 16.9067 29.5287 19.5053 30.4148C20.5064 30.7528 21.5497 30.9497 22.6053 30.9999C26.342 30.9999 27.126 28.4489 27.126 26.3099C27.126 20.2029 21.3678 14.2083 15.501 14.2083ZM15.501 27.1249C12.5897 26.6638 6.17005 30.7842 6.4594 26.3099C6.4594 21.5953 11.0229 16.7916 15.501 16.7916C19.9792 16.7916 24.5427 21.5953 24.5427 26.3099C24.8347 30.7803 18.4267 26.6689 15.501 27.1249Z" fill="#0B1956"/>
<path d="M28.3797 9.54645L28.3791 9.549C28.2733 9.52375 28.1664 9.50419 28.0585 9.4902C26.1312 9.2376 24.3424 10.7967 23.9667 13.6799C23.6099 16.4387 24.7493 18.8833 26.5378 19.3074C26.6188 19.3268 26.7007 19.3418 26.7834 19.3523C28.715 19.6033 30.5776 17.4643 30.9499 14.5843C31.3018 11.8629 30.133 9.96217 28.3797 9.54645ZM28.3884 14.2518C28.2511 15.2179 27.8868 16.1574 27.1173 16.7739C26.529 15.9823 26.381 15.033 26.5285 14.0112C26.6786 13.3783 26.8207 12.7524 27.2353 12.2567C27.4613 11.9998 27.6531 12.0398 27.7278 12.0495L27.7835 12.0618C28.2071 12.1622 28.5493 13.0076 28.3884 14.2518Z" fill="#0B1956"/>
</g>
<defs>
<clipPath id="clip0_2504_6827">
<rect width="31" height="31" fill="white"/>
</clipPath>
</defs>
</svg>
