<svg width="31" height="31" viewBox="0 0 31 31" fill="none" xmlns="http://www.w3.org/2000/svg">
<g clip-path="url(#clip0_2504_6757)">
<path d="M29.9667 1.03417C29.4876 0.551258 28.8783 0.21817 28.2132 0.0755135C27.5481 -0.0671431 26.8558 -0.0132054 26.2208 0.230751L0 10.7501V11.6258C0.00581182 16.7626 2.04897 21.6874 5.68123 25.3196C9.31348 28.9519 14.2382 30.995 19.375 31.0008H20.2482L30.783 4.74125C31.0182 4.11032 31.0662 3.42492 30.9214 2.76734C30.7766 2.10976 30.4451 1.50795 29.9667 1.03417ZM27.1379 2.64229C27.3073 2.57723 27.492 2.56348 27.6691 2.60276C27.8462 2.64204 28.0078 2.73261 28.1338 2.86317C28.2613 2.98261 28.3516 3.13645 28.3935 3.30609C28.4355 3.47572 28.4273 3.65388 28.3702 3.819L27.497 5.99417C20.1242 3.46767 15.9831 13.9069 23.0201 17.1529L20.5763 23.2508C12.3367 23.2121 7.78746 18.6615 7.75 10.422L27.1379 2.64229ZM21.9583 11.6258C21.959 11.0775 22.0911 10.5374 22.3436 10.0507C22.5961 9.56401 22.9616 9.14495 23.4094 8.82866C23.8573 8.51237 24.3745 8.30808 24.9176 8.23292C25.4607 8.15775 26.0139 8.2139 26.5308 8.39667L23.9824 14.7491C23.3811 14.4772 22.8707 14.0383 22.5119 13.4846C22.153 12.9309 21.9609 12.2857 21.9583 11.6258ZM18.5109 28.3955C14.3631 28.1764 10.4432 26.4299 7.5064 23.4927C4.56962 20.5554 2.82379 16.6352 2.60529 12.4874L5.20929 11.4424C5.62392 20.1043 10.8926 25.3756 19.5545 25.7915L18.5109 28.3955Z" fill="#142553"/>
<path d="M14.2083 16.7917C14.8935 16.7917 15.5505 16.5195 16.035 16.035C16.5195 15.5505 16.7917 14.8935 16.7917 14.2083C16.7917 13.5232 16.5195 12.8661 16.035 12.3816C15.5505 11.8972 14.8935 11.625 14.2083 11.625C13.5232 11.625 12.8661 11.8972 12.3816 12.3816C11.8972 12.8661 11.625 13.5232 11.625 14.2083C11.625 14.8935 11.8972 15.5505 12.3816 16.035C12.8661 16.5195 13.5232 16.7917 14.2083 16.7917Z" fill="#142553"/>
</g>
<defs>
<clipPath id="clip0_2504_6757">
<rect width="31" height="31" fill="white"/>
</clipPath>
</defs>
</svg>
