<svg width="31" height="31" viewBox="0 0 31 31" fill="none" xmlns="http://www.w3.org/2000/svg">
<g clip-path="url(#clip0_2504_6779)">
<path d="M28.2229 3.84455L16.0347 0.155553C15.0507 -0.130302 13.9936 -0.0147716 13.0945 0.476866C12.1955 0.968504 11.5278 1.79622 11.2375 2.77892L10.5155 5.16592H3.875C2.84729 5.16592 1.86166 5.57418 1.13496 6.30088C0.408258 7.02758 0 8.0132 0 9.04092L0 30.9992H20.6667V28.3578L24.6708 29.8458L30.845 8.64438C31.1317 7.6602 31.0167 6.60252 30.5253 5.70291C30.0338 4.80331 29.206 4.13509 28.2229 3.84455V3.84455ZM18.0833 28.4159H2.58333V9.04092C2.58333 8.69835 2.71942 8.36981 2.96165 8.12757C3.20389 7.88534 3.53243 7.74925 3.875 7.74925H16.7917C17.1342 7.74925 17.4628 7.88534 17.705 8.12757C17.9472 8.36981 18.0833 8.69835 18.0833 9.04092V28.4159ZM28.365 7.92234L22.9658 26.4564L20.6667 25.6001V9.04092C20.6667 8.0132 20.2584 7.02758 19.5317 6.30088C18.805 5.57418 17.8194 5.16592 16.7917 5.16592H13.2137L13.7097 3.51259C13.7563 3.34881 13.8349 3.19594 13.9412 3.06288C14.0474 2.92982 14.1791 2.81924 14.3285 2.73759C14.4747 2.65578 14.6358 2.60383 14.8023 2.58476C14.9689 2.56569 15.1375 2.57988 15.2985 2.62651L27.4854 6.3155C27.6489 6.36283 27.8015 6.44201 27.9343 6.5485C28.0671 6.65499 28.1776 6.78669 28.2593 6.93602C28.341 7.08534 28.3925 7.24936 28.4106 7.41862C28.4287 7.58789 28.4132 7.75908 28.365 7.92234V7.92234ZM15.5 16.7909C15.5 19.8044 10.3333 23.2492 10.3333 23.2492C10.3333 23.2492 5.16667 19.8044 5.16667 16.7909C5.16667 16.1058 5.43884 15.4487 5.92331 14.9642C6.40778 14.4798 7.06486 14.2076 7.75 14.2076C8.43514 14.2076 9.09222 14.4798 9.57669 14.9642C10.0612 15.4487 10.3333 16.1058 10.3333 16.7909C10.3333 16.1058 10.6055 15.4487 11.09 14.9642C11.5744 14.4798 12.2315 14.2076 12.9167 14.2076C13.6018 14.2076 14.2589 14.4798 14.7434 14.9642C15.2278 15.4487 15.5 16.1058 15.5 16.7909V16.7909Z" fill="#0B1956"/>
</g>
<defs>
<clipPath id="clip0_2504_6779">
<rect width="31" height="31" fill="white"/>
</clipPath>
</defs>
</svg>
