<svg width="24" height="23" viewBox="0 0 24 23" fill="none" xmlns="http://www.w3.org/2000/svg">
<g clip-path="url(#clip0_2453_7249)">
<path d="M19 0.75H5C3.67441 0.751471 2.40356 1.23996 1.46622 2.10833C0.528882 2.97669 0.00158786 4.15403 0 5.38208L0 18.3519C0.00158786 19.58 0.528882 20.7573 1.46622 21.6257C2.40356 22.494 3.67441 22.9825 5 22.984H19C20.3256 22.9825 21.5964 22.494 22.5338 21.6257C23.4711 20.7573 23.9984 19.58 24 18.3519V5.38208C23.9984 4.15403 23.4711 2.97669 22.5338 2.10833C21.5964 1.23996 20.3256 0.751471 19 0.75V0.75ZM7 21.1312V20.2047C7 18.9762 7.52678 17.798 8.46447 16.9294C9.40215 16.0607 10.6739 15.5727 12 15.5727C13.3261 15.5727 14.5979 16.0607 15.5355 16.9294C16.4732 17.798 17 18.9762 17 20.2047V21.1312H7ZM22 18.3519C22 19.089 21.6839 19.7959 21.1213 20.3171C20.5587 20.8383 19.7956 21.1312 19 21.1312V20.2047C19 18.4848 18.2625 16.8354 16.9497 15.6192C15.637 14.4031 13.8565 13.7198 12 13.7198C10.1435 13.7198 8.36301 14.4031 7.05025 15.6192C5.7375 16.8354 5 18.4848 5 20.2047V21.1312C4.20435 21.1312 3.44129 20.8383 2.87868 20.3171C2.31607 19.7959 2 19.089 2 18.3519V5.38208C2 4.64498 2.31607 3.93807 2.87868 3.41685C3.44129 2.89564 4.20435 2.60283 5 2.60283H19C19.7956 2.60283 20.5587 2.89564 21.1213 3.41685C21.6839 3.93807 22 4.64498 22 5.38208V18.3519Z" fill="#0B1956"/>
<path d="M12 4.45605C11.2089 4.45605 10.4355 4.67339 9.77772 5.08057C9.11993 5.48776 8.60723 6.0665 8.30448 6.74362C8.00173 7.42074 7.92252 8.16583 8.07686 8.88466C8.2312 9.60349 8.61216 10.2638 9.17157 10.782C9.73098 11.3003 10.4437 11.6532 11.2196 11.7962C11.9956 11.9392 12.7998 11.8658 13.5307 11.5853C14.2616 11.3048 14.8864 10.8299 15.3259 10.2205C15.7654 9.61108 16 8.89463 16 8.16172C16 7.17892 15.5786 6.23636 14.8284 5.54142C14.0783 4.84647 13.0609 4.45605 12 4.45605ZM12 10.0146C11.6044 10.0146 11.2178 9.90588 10.8889 9.70229C10.56 9.4987 10.3036 9.20933 10.1522 8.87077C10.0009 8.53221 9.96126 8.15966 10.0384 7.80025C10.1156 7.44083 10.3061 7.11069 10.5858 6.85157C10.8655 6.59245 11.2219 6.41598 11.6098 6.34449C11.9978 6.273 12.3999 6.30969 12.7654 6.44992C13.1308 6.59016 13.4432 6.82764 13.6629 7.13234C13.8827 7.43704 14 7.79526 14 8.16172C14 8.65312 13.7893 9.12439 13.4142 9.47187C13.0391 9.81934 12.5304 10.0146 12 10.0146Z" fill="#0B1956"/>
</g>
<defs>
<clipPath id="clip0_2453_7249">
<rect y="0.75" width="24" height="22.234" rx="3" fill="white"/>
</clipPath>
</defs>
</svg>
