<svg width="24" height="23" viewBox="0 0 24 23" fill="none" xmlns="http://www.w3.org/2000/svg">
<g clip-path="url(#clip0_2156_4777)">
<path d="M19 0H5C3.6744 0.00147538 2.40356 0.491419 1.46622 1.36236C0.528882 2.23331 0.00158786 3.41413 0 4.64583L0 17.6542C0.00158786 18.8859 0.528882 20.0667 1.46622 20.9376C2.40356 21.8086 3.6744 22.2985 5 22.3V19.5125C5 17.7875 5.7375 16.1331 7.05025 14.9134C8.36301 13.6936 10.1435 13.0083 12 13.0083C13.8565 13.0083 15.637 13.6936 16.9497 14.9134C18.2625 16.1331 19 17.7875 19 19.5125V22.3C20.3256 22.2985 21.5964 21.8086 22.5338 20.9376C23.4711 20.0667 23.9984 18.8859 24 17.6542V4.64583C23.9984 3.41413 23.4711 2.23331 22.5338 1.36236C21.5964 0.491419 20.3256 0.00147538 19 0V0ZM12 11.15C11.2089 11.15 10.4355 10.932 9.77772 10.5236C9.11992 10.1152 8.60723 9.53477 8.30448 8.85564C8.00173 8.17651 7.92252 7.42921 8.07686 6.70825C8.2312 5.98728 8.61216 5.32504 9.17157 4.80525C9.73098 4.28547 10.4437 3.93149 11.2196 3.78808C11.9956 3.64467 12.7998 3.71828 13.5307 3.99958C14.2616 4.28089 14.8864 4.75726 15.3259 5.36846C15.7654 5.97967 16 6.69825 16 7.43333C16 8.41905 15.5786 9.3644 14.8284 10.0614C14.0783 10.7584 13.0609 11.15 12 11.15Z" fill="#0B1956"/>
<path d="M11.9998 9.29185C13.1043 9.29185 13.9997 8.45985 13.9997 7.43353C13.9997 6.4072 13.1043 5.5752 11.9998 5.5752C10.8952 5.5752 9.99976 6.4072 9.99976 7.43353C9.99976 8.45985 10.8952 9.29185 11.9998 9.29185Z" fill="#0B1956"/>
<path d="M11.9998 14.8672C10.6742 14.8687 9.40331 15.3586 8.46598 16.2295C7.52864 17.1005 7.00134 18.2813 6.99976 19.513V22.3005H16.9998V19.513C16.9982 18.2813 16.4709 17.1005 15.5335 16.2295C14.5962 15.3586 13.3254 14.8687 11.9998 14.8672V14.8672Z" fill="#0B1956"/>
</g>
<defs>
<clipPath id="clip0_2156_4777">
<rect width="24" height="22.3" fill="white"/>
</clipPath>
</defs>
</svg>
