<svg width="46" height="46" viewBox="0 0 46 46" fill="none" xmlns="http://www.w3.org/2000/svg">
<path fill-rule="evenodd" clip-rule="evenodd" d="M31.3335 16.75C31.3335 18.9602 30.4555 21.0798 28.8927 22.6426C27.3299 24.2054 25.2103 25.0834 23.0002 25.0834C20.79 25.0834 18.6704 24.2054 17.1076 22.6426C15.5448 21.0798 14.6668 18.9602 14.6668 16.75C14.6668 14.5399 15.5448 12.4203 17.1076 10.8575C18.6704 9.29468 20.79 8.41671 23.0002 8.41671C25.2103 8.41671 27.3299 9.29468 28.8927 10.8575C30.4555 12.4203 31.3335 14.5399 31.3335 16.75ZM27.1668 16.75C27.1668 17.8551 26.7278 18.9149 25.9464 19.6963C25.165 20.4777 24.1052 20.9167 23.0002 20.9167C21.8951 20.9167 20.8353 20.4777 20.0539 19.6963C19.2725 18.9149 18.8335 17.8551 18.8335 16.75C18.8335 15.645 19.2725 14.5852 20.0539 13.8038C20.8353 13.0224 21.8951 12.5834 23.0002 12.5834C24.1052 12.5834 25.165 13.0224 25.9464 13.8038C26.7278 14.5852 27.1668 15.645 27.1668 16.75Z" fill="black"/>
<path fill-rule="evenodd" clip-rule="evenodd" d="M23.0002 0.083374C10.3439 0.083374 0.0834961 10.3438 0.0834961 23C0.0834961 35.6563 10.3439 45.9167 23.0002 45.9167C35.6564 45.9167 45.9168 35.6563 45.9168 23C45.9168 10.3438 35.6564 0.083374 23.0002 0.083374ZM4.25016 23C4.25016 27.3542 5.73558 31.3625 8.22516 34.5459C9.974 32.2503 12.2296 30.3899 14.8161 29.1099C17.4025 27.8299 20.2497 27.1648 23.1356 27.1667C25.9843 27.1634 28.7961 27.8107 31.3567 29.0592C33.9172 30.3077 36.1588 32.1244 37.9106 34.3709C39.7157 32.0034 40.9311 29.2401 41.4562 26.3096C41.9813 23.3791 41.8011 20.3657 40.9304 17.5188C40.0597 14.6718 38.5235 12.0731 36.4491 9.93762C34.3746 7.80218 31.8215 6.19141 29.001 5.2386C26.1804 4.28579 23.1735 4.01831 20.229 4.45832C17.2846 4.89832 14.4872 6.03315 12.0684 7.7689C9.64964 9.50466 7.67894 11.7914 6.31939 14.44C4.95984 17.0886 4.25054 20.0229 4.25016 23ZM23.0002 41.75C18.6958 41.757 14.5213 40.2762 11.1835 37.5584C12.5268 35.6347 14.3151 34.064 16.3962 32.9802C18.4772 31.8963 20.7892 31.3314 23.1356 31.3334C25.4526 31.3313 27.7367 31.8822 29.798 32.9403C31.8594 33.9983 33.6385 35.533 34.9877 37.4167C31.6241 40.223 27.3807 41.7569 23.0002 41.75Z" fill="black"/>
</svg>
