<svg width="30" height="30" viewBox="0 0 30 30" fill="none" xmlns="http://www.w3.org/2000/svg">
<g clip-path="url(#clip0_2504_6822)">
<path d="M18.7 7.67375C17.5786 6.75543 16.1744 6.25251 14.725 6.25H10.9637L9.31625 0H1.28625L2.93375 6.25H0V8.75H14.725C15.5972 8.75228 16.4419 9.05562 17.1162 9.60875C18.8821 11.0957 20.3221 12.9311 21.3462 15H18.375L14.625 17.5H0V20H15.375L19.125 17.5H27.4263C27.1157 20.2481 25.8051 22.786 23.744 24.6301C21.683 26.4742 19.0156 27.4957 16.25 27.5H0V30H16.25C19.8954 29.9957 23.3903 28.5457 25.968 25.968C28.5457 23.3903 29.9957 19.8954 30 16.25V15H24.1088C22.9041 12.1682 21.0515 9.6588 18.7 7.67375ZM4.53125 2.5H7.39L8.375 6.25H5.51875L4.53125 2.5ZM15 13.75H0V11.25H15V13.75ZM3.75 25C3.50277 25 3.2611 24.9267 3.05554 24.7893C2.84998 24.652 2.68976 24.4568 2.59515 24.2284C2.50054 23.9999 2.47579 23.7486 2.52402 23.5061C2.57225 23.2637 2.6913 23.0409 2.86612 22.8661C3.04093 22.6913 3.26366 22.5723 3.50614 22.524C3.74861 22.4758 3.99995 22.5005 4.22835 22.5951C4.45676 22.6898 4.65199 22.85 4.78934 23.0555C4.92669 23.2611 5 23.5028 5 23.75C5 24.0815 4.8683 24.3995 4.63388 24.6339C4.39946 24.8683 4.08152 25 3.75 25ZM8.75 25C8.50277 25 8.2611 24.9267 8.05554 24.7893C7.84998 24.652 7.68976 24.4568 7.59515 24.2284C7.50054 23.9999 7.47579 23.7486 7.52402 23.5061C7.57225 23.2637 7.6913 23.0409 7.86612 22.8661C8.04093 22.6913 8.26366 22.5723 8.50614 22.524C8.74861 22.4758 8.99995 22.5005 9.22835 22.5951C9.45676 22.6898 9.65199 22.85 9.78934 23.0555C9.92669 23.2611 10 23.5028 10 23.75C10 24.0815 9.8683 24.3995 9.63388 24.6339C9.39946 24.8683 9.08152 25 8.75 25ZM13.75 25C13.5028 25 13.2611 24.9267 13.0555 24.7893C12.85 24.652 12.6898 24.4568 12.5951 24.2284C12.5005 23.9999 12.4758 23.7486 12.524 23.5061C12.5722 23.2637 12.6913 23.0409 12.8661 22.8661C13.0409 22.6913 13.2637 22.5723 13.5061 22.524C13.7486 22.4758 13.9999 22.5005 14.2284 22.5951C14.4568 22.6898 14.652 22.85 14.7893 23.0555C14.9267 23.2611 15 23.5028 15 23.75C15 24.0815 14.8683 24.3995 14.6339 24.6339C14.3995 24.8683 14.0815 25 13.75 25Z" fill="#0B1956"/>
</g>
<defs>
<clipPath id="clip0_2504_6822">
<rect width="30" height="30" fill="white"/>
</clipPath>
</defs>
</svg>
