<svg width="47" height="47" viewBox="0 0 47 47" fill="none" xmlns="http://www.w3.org/2000/svg">
<path d="M24.3301 15.7817L26.2212 17.042C26.4325 17.1828 26.7189 17.0818 26.7373 16.8276C26.8751 15.0131 25.0268 12.7085 24.0882 12.0041L24.3301 15.7817Z" fill="url(#paint0_linear_2901_1841)"/>
<path d="M24.3301 15.7817L26.2212 17.042C26.4325 17.1828 26.7189 17.0818 26.7373 16.8276C26.8751 15.0131 25.0268 12.7085 24.0882 12.0041L24.3301 15.7817Z" fill="url(#paint1_linear_2901_1841)"/>
<path d="M24.3301 15.7817L26.2212 17.042C26.4325 17.1828 26.7189 17.0818 26.7373 16.8276C26.8751 15.0131 25.0268 12.7085 24.0882 12.0041L24.3301 15.7817Z" fill="url(#paint2_linear_2901_1841)"/>
<path d="M1.10044 13.8933C1.19844 13.5028 1.7405 13.5304 1.82779 13.9209C2.09575 15.1107 2.3285 15.6114 2.71591 16.4015C2.78941 16.547 3.01757 16.4964 3.02216 16.3326C3.12629 11.7067 4.31454 7.33804 6.10763 4.90182C6.31282 4.62313 6.72013 4.77932 6.72013 5.12538V9.1051C6.72013 9.28119 7.00647 9.33478 7.07691 9.174C8.02322 6.98891 10.9617 1.54072 17.1449 0.294285C17.5323 0.217723 17.7268 0.707723 17.4174 0.952723C15.0685 2.80554 11.81 6.16969 11.7089 10.8538C11.5466 18.2666 16.5814 21.0152 18.9028 22.0013C19.0804 22.0768 19.259 22.1468 19.4387 22.2111C20.7251 22.6877 21.7928 23.6184 22.4405 24.8278C23.0881 26.0372 23.271 27.4417 22.9546 28.7766C22.6383 30.1116 21.8445 31.2846 20.723 32.0748C19.6015 32.8649 18.2297 33.2175 16.8662 33.0661H16.8585C8.94197 32.1856 -2.11059 26.7619 1.10197 13.8918" fill="url(#paint3_linear_2901_1841)"/>
<path d="M1.10044 13.8933C1.19844 13.5028 1.7405 13.5304 1.82779 13.9209C2.09575 15.1107 2.3285 15.6114 2.71591 16.4015C2.78941 16.547 3.01757 16.4964 3.02216 16.3326C3.12629 11.7067 4.31454 7.33804 6.10763 4.90182C6.31282 4.62313 6.72013 4.77932 6.72013 5.12538V9.1051C6.72013 9.28119 7.00647 9.33478 7.07691 9.174C8.02322 6.98891 10.9617 1.54072 17.1449 0.294285C17.5323 0.217723 17.7268 0.707723 17.4174 0.952723C15.0685 2.80554 11.81 6.16969 11.7089 10.8538C11.5466 18.2666 16.5814 21.0152 18.9028 22.0013C19.0804 22.0768 19.259 22.1468 19.4387 22.2111C20.7251 22.6877 21.7928 23.6184 22.4405 24.8278C23.0881 26.0372 23.271 27.4417 22.9546 28.7766C22.6383 30.1116 21.8445 31.2846 20.723 32.0748C19.6015 32.8649 18.2297 33.2175 16.8662 33.0661H16.8585C8.94197 32.1856 -2.11059 26.7619 1.10197 13.8918" fill="url(#paint4_radial_2901_1841)"/>
<path fill-rule="evenodd" clip-rule="evenodd" d="M38.8339 30.0541C38.6647 29.0718 38.2889 28.1365 37.7314 27.3101C36.4957 25.4726 33.9936 21.8482 33.0014 21.1346C32.5664 20.8195 32.0481 20.6398 31.5114 20.6183C30.9747 20.5968 30.4436 20.7343 29.9848 21.0136C26.4828 23.1528 22.8614 23.1528 22.8614 23.1528C22.5752 23.1529 22.2946 23.0733 22.0511 22.9229C21.8076 22.7725 21.6109 22.5572 21.4829 22.3013C21.3549 22.0453 21.3007 21.7587 21.3265 21.4736C21.3523 21.1886 21.4569 20.9164 21.6288 20.6875L24.8352 16.4122C25.0804 16.0858 25.2582 15.7139 25.3583 15.3182C25.4584 14.9224 25.4788 14.5106 25.4182 14.1069C25.3576 13.7032 25.2174 13.3156 25.0056 12.9666C24.7937 12.6176 24.5146 12.3143 24.1844 12.0742L18.2432 7.753C18.2432 7.753 18.2432 10.8323 19.7821 12.3728L15.3568 17.7521C13.7429 19.7051 12.8574 22.1581 12.8516 24.6917C12.8516 31.077 18.0349 36.2526 24.4218 36.2419C26.4749 36.244 28.4911 35.6957 30.2604 34.654L30.265 34.6509L30.4488 34.5407L32.026 33.5913C32.2537 33.4551 32.5203 33.3986 32.7837 33.4308C33.0472 33.463 33.2924 33.5819 33.4806 33.7689C33.9553 34.2482 33.9446 35.0307 33.4133 35.4472C30.8435 37.465 27.6692 38.5588 24.4019 38.5526C21.6844 38.5574 19.0199 37.801 16.7104 36.369C16.3766 36.1623 15.9325 36.395 15.9325 36.787C15.9325 36.8595 15.9494 36.9284 15.9831 36.9938C16.346 37.6675 18.698 41.6319 23.6316 41.6319C23.6316 41.6319 21.9687 42.1862 20.5232 42.3547C20.2506 42.3853 20.1435 42.7007 20.3854 42.8293C22.4572 43.9043 27.1474 43.7236 28.2514 43.1708C28.2514 43.1708 27.6558 44.3621 25.806 45.6974C25.561 45.8735 25.6713 46.267 25.9745 46.2578C33.1407 46.0235 39.0314 39.6857 39.0314 32.3923C39.0314 31.5961 38.9656 30.8167 38.8339 30.0541Z" fill="url(#paint5_radial_2901_1841)"/>
<path fill-rule="evenodd" clip-rule="evenodd" d="M38.8339 30.0541C38.6647 29.0718 38.2889 28.1365 37.7314 27.3101C36.4957 25.4726 33.9936 21.8482 33.0014 21.1346C32.5664 20.8195 32.0481 20.6398 31.5114 20.6183C30.9747 20.5968 30.4436 20.7343 29.9848 21.0136C26.4828 23.1528 22.8614 23.1528 22.8614 23.1528C22.5752 23.1529 22.2946 23.0733 22.0511 22.9229C21.8076 22.7725 21.6109 22.5572 21.4829 22.3013C21.3549 22.0453 21.3007 21.7587 21.3265 21.4736C21.3523 21.1886 21.4569 20.9164 21.6288 20.6875L24.8352 16.4122C25.0804 16.0858 25.2582 15.7139 25.3583 15.3182C25.4584 14.9224 25.4788 14.5106 25.4182 14.1069C25.3576 13.7032 25.2174 13.3156 25.0056 12.9666C24.7937 12.6176 24.5146 12.3143 24.1844 12.0742L18.2432 7.753C18.2432 7.753 18.2432 10.8323 19.7821 12.3728L15.3568 17.7521C13.7429 19.7051 12.8574 22.1581 12.8516 24.6917C12.8516 31.077 18.0349 36.2526 24.4218 36.2419C26.4749 36.244 28.4911 35.6957 30.2604 34.654L30.265 34.6509L30.4488 34.5407L32.026 33.5913C32.2537 33.4551 32.5203 33.3986 32.7837 33.4308C33.0472 33.463 33.2924 33.5819 33.4806 33.7689C33.9553 34.2482 33.9446 35.0307 33.4133 35.4472C30.8435 37.465 27.6692 38.5588 24.4019 38.5526C21.6844 38.5574 19.0199 37.801 16.7104 36.369C16.3766 36.1623 15.9325 36.395 15.9325 36.787C15.9325 36.8595 15.9494 36.9284 15.9831 36.9938C16.346 37.6675 18.698 41.6319 23.6316 41.6319C23.6316 41.6319 21.9687 42.1862 20.5232 42.3547C20.2506 42.3853 20.1435 42.7007 20.3854 42.8293C22.4572 43.9043 27.1474 43.7236 28.2514 43.1708C28.2514 43.1708 27.6558 44.3621 25.806 45.6974C25.561 45.8735 25.6713 46.267 25.9745 46.2578C33.1407 46.0235 39.0314 39.6857 39.0314 32.3923C39.0314 31.5961 38.9656 30.8167 38.8339 30.0541Z" fill="url(#paint6_radial_2901_1841)"/>
<path fill-rule="evenodd" clip-rule="evenodd" d="M38.8339 30.0541C38.6647 29.0718 38.2889 28.1365 37.7314 27.3101C36.4957 25.4726 33.9936 21.8482 33.0014 21.1346C32.5664 20.8195 32.0481 20.6398 31.5114 20.6183C30.9747 20.5968 30.4436 20.7343 29.9848 21.0136C26.4828 23.1528 22.8614 23.1528 22.8614 23.1528C22.5752 23.1529 22.2946 23.0733 22.0511 22.9229C21.8076 22.7725 21.6109 22.5572 21.4829 22.3013C21.3549 22.0453 21.3007 21.7587 21.3265 21.4736C21.3523 21.1886 21.4569 20.9164 21.6288 20.6875L24.8352 16.4122C25.0804 16.0858 25.2582 15.7139 25.3583 15.3182C25.4584 14.9224 25.4788 14.5106 25.4182 14.1069C25.3576 13.7032 25.2174 13.3156 25.0056 12.9666C24.7937 12.6176 24.5146 12.3143 24.1844 12.0742L18.2432 7.753C18.2432 7.753 18.2432 10.8323 19.7821 12.3728L15.3568 17.7521C13.7429 19.7051 12.8574 22.1581 12.8516 24.6917C12.8516 31.077 18.0349 36.2526 24.4218 36.2419C26.4749 36.244 28.4911 35.6957 30.2604 34.654L30.265 34.6509L30.4488 34.5407L32.026 33.5913C32.2537 33.4551 32.5203 33.3986 32.7837 33.4308C33.0472 33.463 33.2924 33.5819 33.4806 33.7689C33.9553 34.2482 33.9446 35.0307 33.4133 35.4472C30.8435 37.465 27.6692 38.5588 24.4019 38.5526C21.6844 38.5574 19.0199 37.801 16.7104 36.369C16.3766 36.1623 15.9325 36.395 15.9325 36.787C15.9325 36.8595 15.9494 36.9284 15.9831 36.9938C16.346 37.6675 18.698 41.6319 23.6316 41.6319C23.6316 41.6319 21.9687 42.1862 20.5232 42.3547C20.2506 42.3853 20.1435 42.7007 20.3854 42.8293C22.4572 43.9043 27.1474 43.7236 28.2514 43.1708C28.2514 43.1708 27.6558 44.3621 25.806 45.6974C25.561 45.8735 25.6713 46.267 25.9745 46.2578C33.1407 46.0235 39.0314 39.6857 39.0314 32.3923C39.0314 31.5961 38.9656 30.8167 38.8339 30.0541Z" fill="url(#paint7_radial_2901_1841)"/>
<path fill-rule="evenodd" clip-rule="evenodd" d="M38.8339 30.0541C38.6647 29.0718 38.2889 28.1365 37.7314 27.3101C36.4957 25.4726 33.9936 21.8482 33.0014 21.1346C32.5664 20.8195 32.0481 20.6398 31.5114 20.6183C30.9747 20.5968 30.4436 20.7343 29.9848 21.0136C26.4828 23.1528 22.8614 23.1528 22.8614 23.1528C22.5752 23.1529 22.2946 23.0733 22.0511 22.9229C21.8076 22.7725 21.6109 22.5572 21.4829 22.3013C21.3549 22.0453 21.3007 21.7587 21.3265 21.4736C21.3523 21.1886 21.4569 20.9164 21.6288 20.6875L24.8352 16.4122C25.0804 16.0858 25.2582 15.7139 25.3583 15.3182C25.4584 14.9224 25.4788 14.5106 25.4182 14.1069C25.3576 13.7032 25.2174 13.3156 25.0056 12.9666C24.7937 12.6176 24.5146 12.3143 24.1844 12.0742L18.2432 7.753C18.2432 7.753 18.2432 10.8323 19.7821 12.3728L15.3568 17.7521C13.7429 19.7051 12.8574 22.1581 12.8516 24.6917C12.8516 31.077 18.0349 36.2526 24.4218 36.2419C26.4749 36.244 28.4911 35.6957 30.2604 34.654L30.265 34.6509L30.4488 34.5407L32.026 33.5913C32.2537 33.4551 32.5203 33.3986 32.7837 33.4308C33.0472 33.463 33.2924 33.5819 33.4806 33.7689C33.9553 34.2482 33.9446 35.0307 33.4133 35.4472C30.8435 37.465 27.6692 38.5588 24.4019 38.5526C21.6844 38.5574 19.0199 37.801 16.7104 36.369C16.3766 36.1623 15.9325 36.395 15.9325 36.787C15.9325 36.8595 15.9494 36.9284 15.9831 36.9938C16.346 37.6675 18.698 41.6319 23.6316 41.6319C23.6316 41.6319 21.9687 42.1862 20.5232 42.3547C20.2506 42.3853 20.1435 42.7007 20.3854 42.8293C22.4572 43.9043 27.1474 43.7236 28.2514 43.1708C28.2514 43.1708 27.6558 44.3621 25.806 45.6974C25.561 45.8735 25.6713 46.267 25.9745 46.2578C33.1407 46.0235 39.0314 39.6857 39.0314 32.3923C39.0314 31.5961 38.9656 30.8167 38.8339 30.0541Z" fill="url(#paint8_radial_2901_1841)" fill-opacity="0.7"/>
<path fill-rule="evenodd" clip-rule="evenodd" d="M38.8339 30.0541C38.6647 29.0718 38.2889 28.1365 37.7314 27.3101C36.4957 25.4726 33.9936 21.8482 33.0014 21.1346C32.5664 20.8195 32.0481 20.6398 31.5114 20.6183C30.9747 20.5968 30.4436 20.7343 29.9848 21.0136C26.4828 23.1528 22.8614 23.1528 22.8614 23.1528C22.5752 23.1529 22.2946 23.0733 22.0511 22.9229C21.8076 22.7725 21.6109 22.5572 21.4829 22.3013C21.3549 22.0453 21.3007 21.7587 21.3265 21.4736C21.3523 21.1886 21.4569 20.9164 21.6288 20.6875L24.8352 16.4122C25.0804 16.0858 25.2582 15.7139 25.3583 15.3182C25.4584 14.9224 25.4788 14.5106 25.4182 14.1069C25.3576 13.7032 25.2174 13.3156 25.0056 12.9666C24.7937 12.6176 24.5146 12.3143 24.1844 12.0742L18.2432 7.753C18.2432 7.753 18.2432 10.8323 19.7821 12.3728L15.3568 17.7521C13.7429 19.7051 12.8574 22.1581 12.8516 24.6917C12.8516 31.077 18.0349 36.2526 24.4218 36.2419C26.4749 36.244 28.4911 35.6957 30.2604 34.654L30.265 34.6509L30.4488 34.5407L32.026 33.5913C32.2537 33.4551 32.5203 33.3986 32.7837 33.4308C33.0472 33.463 33.2924 33.5819 33.4806 33.7689C33.9553 34.2482 33.9446 35.0307 33.4133 35.4472C30.8435 37.465 27.6692 38.5588 24.4019 38.5526C21.6844 38.5574 19.0199 37.801 16.7104 36.369C16.3766 36.1623 15.9325 36.395 15.9325 36.787C15.9325 36.8595 15.9494 36.9284 15.9831 36.9938C16.346 37.6675 18.698 41.6319 23.6316 41.6319C23.6316 41.6319 21.9687 42.1862 20.5232 42.3547C20.2506 42.3853 20.1435 42.7007 20.3854 42.8293C22.4572 43.9043 27.1474 43.7236 28.2514 43.1708C28.2514 43.1708 27.6558 44.3621 25.806 45.6974C25.561 45.8735 25.6713 46.267 25.9745 46.2578C33.1407 46.0235 39.0314 39.6857 39.0314 32.3923C39.0314 31.5961 38.9656 30.8167 38.8339 30.0541Z" fill="url(#paint9_radial_2901_1841)" fill-opacity="0.7"/>
<path fill-rule="evenodd" clip-rule="evenodd" d="M38.8339 30.0541C38.6647 29.0718 38.2889 28.1365 37.7314 27.3101C36.4957 25.4726 33.9936 21.8482 33.0014 21.1346C32.5664 20.8195 32.0481 20.6398 31.5114 20.6183C30.9747 20.5968 30.4436 20.7343 29.9848 21.0136C26.4828 23.1528 22.8614 23.1528 22.8614 23.1528C22.5752 23.1529 22.2946 23.0733 22.0511 22.9229C21.8076 22.7725 21.6109 22.5572 21.4829 22.3013C21.3549 22.0453 21.3007 21.7587 21.3265 21.4736C21.3523 21.1886 21.4569 20.9164 21.6288 20.6875L24.8352 16.4122C25.0804 16.0858 25.2582 15.7139 25.3583 15.3182C25.4584 14.9224 25.4788 14.5106 25.4182 14.1069C25.3576 13.7032 25.2174 13.3156 25.0056 12.9666C24.7937 12.6176 24.5146 12.3143 24.1844 12.0742L18.2432 7.753C18.2432 7.753 18.2432 10.8323 19.7821 12.3728L15.3568 17.7521C13.7429 19.7051 12.8574 22.1581 12.8516 24.6917C12.8516 31.077 18.0349 36.2526 24.4218 36.2419C26.4749 36.244 28.4911 35.6957 30.2604 34.654L30.265 34.6509L30.4488 34.5407L32.026 33.5913C32.2537 33.4551 32.5203 33.3986 32.7837 33.4308C33.0472 33.463 33.2924 33.5819 33.4806 33.7689C33.9553 34.2482 33.9446 35.0307 33.4133 35.4472C30.8435 37.465 27.6692 38.5588 24.4019 38.5526C21.6844 38.5574 19.0199 37.801 16.7104 36.369C16.3766 36.1623 15.9325 36.395 15.9325 36.787C15.9325 36.8595 15.9494 36.9284 15.9831 36.9938C16.346 37.6675 18.698 41.6319 23.6316 41.6319C23.6316 41.6319 21.9687 42.1862 20.5232 42.3547C20.2506 42.3853 20.1435 42.7007 20.3854 42.8293C22.4572 43.9043 27.1474 43.7236 28.2514 43.1708C28.2514 43.1708 27.6558 44.3621 25.806 45.6974C25.561 45.8735 25.6713 46.267 25.9745 46.2578C33.1407 46.0235 39.0314 39.6857 39.0314 32.3923C39.0314 31.5961 38.9656 30.8167 38.8339 30.0541Z" fill="url(#paint10_radial_2901_1841)" fill-opacity="0.3"/>
<path fill-rule="evenodd" clip-rule="evenodd" d="M38.8339 30.0541C38.6647 29.0718 38.2889 28.1365 37.7314 27.3101C36.4957 25.4726 33.9936 21.8482 33.0014 21.1346C32.5664 20.8195 32.0481 20.6398 31.5114 20.6183C30.9747 20.5968 30.4436 20.7343 29.9848 21.0136C26.4828 23.1528 22.8614 23.1528 22.8614 23.1528C22.5752 23.1529 22.2946 23.0733 22.0511 22.9229C21.8076 22.7725 21.6109 22.5572 21.4829 22.3013C21.3549 22.0453 21.3007 21.7587 21.3265 21.4736C21.3523 21.1886 21.4569 20.9164 21.6288 20.6875L24.8352 16.4122C25.0804 16.0858 25.2582 15.7139 25.3583 15.3182C25.4584 14.9224 25.4788 14.5106 25.4182 14.1069C25.3576 13.7032 25.2174 13.3156 25.0056 12.9666C24.7937 12.6176 24.5146 12.3143 24.1844 12.0742L18.2432 7.753C18.2432 7.753 18.2432 10.8323 19.7821 12.3728L15.3568 17.7521C13.7429 19.7051 12.8574 22.1581 12.8516 24.6917C12.8516 31.077 18.0349 36.2526 24.4218 36.2419C26.4749 36.244 28.4911 35.6957 30.2604 34.654L30.265 34.6509L30.4488 34.5407L32.026 33.5913C32.2537 33.4551 32.5203 33.3986 32.7837 33.4308C33.0472 33.463 33.2924 33.5819 33.4806 33.7689C33.9553 34.2482 33.9446 35.0307 33.4133 35.4472C30.8435 37.465 27.6692 38.5588 24.4019 38.5526C21.6844 38.5574 19.0199 37.801 16.7104 36.369C16.3766 36.1623 15.9325 36.395 15.9325 36.787C15.9325 36.8595 15.9494 36.9284 15.9831 36.9938C16.346 37.6675 18.698 41.6319 23.6316 41.6319C23.6316 41.6319 21.9687 42.1862 20.5232 42.3547C20.2506 42.3853 20.1435 42.7007 20.3854 42.8293C22.4572 43.9043 27.1474 43.7236 28.2514 43.1708C28.2514 43.1708 27.6558 44.3621 25.806 45.6974C25.561 45.8735 25.6713 46.267 25.9745 46.2578C33.1407 46.0235 39.0314 39.6857 39.0314 32.3923C39.0314 31.5961 38.9656 30.8167 38.8339 30.0541Z" fill="url(#paint11_radial_2901_1841)" fill-opacity="0.2"/>
<path d="M22.8614 15.4521C23.0657 15.4521 23.2616 15.371 23.4061 15.2265C23.5505 15.0821 23.6317 14.8862 23.6317 14.6819C23.6317 14.4776 23.5505 14.2817 23.4061 14.1373C23.2616 13.9928 23.0657 13.9117 22.8614 13.9117C22.6572 13.9117 22.4613 13.9928 22.3168 14.1373C22.1724 14.2817 22.0912 14.4776 22.0912 14.6819C22.0912 14.8862 22.1724 15.0821 22.3168 15.2265C22.4613 15.371 22.6572 15.4521 22.8614 15.4521Z" fill="url(#paint12_radial_2901_1841)"/>
<path d="M22.8614 15.4521C23.0657 15.4521 23.2616 15.371 23.4061 15.2265C23.5505 15.0821 23.6317 14.8862 23.6317 14.6819C23.6317 14.4776 23.5505 14.2817 23.4061 14.1373C23.2616 13.9928 23.0657 13.9117 22.8614 13.9117C22.6572 13.9117 22.4613 13.9928 22.3168 14.1373C22.1724 14.2817 22.0912 14.4776 22.0912 14.6819C22.0912 14.8862 22.1724 15.0821 22.3168 15.2265C22.4613 15.371 22.6572 15.4521 22.8614 15.4521Z" fill="url(#paint13_radial_2901_1841)"/>
<path d="M45.8991 13.8931C45.8011 13.5026 45.259 13.5302 45.1718 13.9222C44.9053 15.112 44.671 15.6112 44.2836 16.3997C44.2117 16.5467 43.982 16.4962 43.9789 16.3324C43.8717 11.7065 42.685 7.33781 40.8919 4.90159C40.6867 4.6229 40.2794 4.77909 40.2794 5.12515V9.10487C40.2794 9.28097 39.9931 9.33456 39.9242 9.17378C38.9763 6.98869 36.0378 1.5405 29.8547 0.295592C29.4673 0.217498 29.2728 0.705967 29.5821 0.950967C31.931 2.80684 35.1895 6.17253 35.2906 10.8551C35.4529 18.2679 30.4182 21.0165 28.0968 22.0026C27.92 22.0773 27.7413 22.1473 27.5608 22.2124C26.2744 22.689 25.2067 23.6197 24.5591 24.8291C23.9114 26.0385 23.7285 27.443 24.0449 28.7779C24.3613 30.1129 25.155 31.286 26.2765 32.0761C27.398 32.8662 28.7698 33.2188 30.1333 33.0674H30.141C38.0576 32.1869 49.1117 26.7633 45.8991 13.8931Z" fill="url(#paint14_radial_2901_1841)"/>
<path d="M3.59065 23.064C3.84484 24.4283 4.40987 26.7068 5.56902 28.6316C1.76387 25.5676 -0.622214 20.8023 1.10044 13.8933C1.19844 13.5028 1.7405 13.5304 1.82779 13.9209C2.09575 15.1107 2.3285 15.6114 2.71591 16.4015C2.78941 16.547 3.01757 16.4964 3.02216 16.3326C3.12629 11.7067 4.31454 7.33804 6.10763 4.90182C6.31282 4.62313 6.72013 4.77932 6.72013 5.12538V9.1051C6.72013 9.28119 7.00647 9.33478 7.07691 9.174C8.02322 6.98891 10.9617 1.54072 17.1449 0.294285C17.5323 0.217723 17.7268 0.707723 17.4174 0.952723C15.9888 2.07972 14.2252 3.76563 13.0385 5.96757C10.5395 9.65022 8.93012 15.3358 8.80762 18.7581C8.79996 18.997 8.53812 19.1424 8.34059 19.0092C7.3269 18.3171 6.74349 17.576 6.42346 17.0446C6.33618 16.8992 6.02074 16.9528 6.01002 17.1212C5.91968 18.5759 5.80177 21.6261 6.23665 23.5693C6.29943 23.8495 6.00696 24.0792 5.77727 23.9062C5.30412 23.5448 4.76052 23.0793 4.3134 22.6796C3.9949 22.3979 3.51255 22.6459 3.59065 23.0624" fill="url(#paint15_radial_2901_1841)"/>
<path d="M43.4108 23.064C43.1551 24.4283 42.5885 26.7068 41.4309 28.6316C45.2361 25.566 47.6218 20.8021 45.8991 13.8931C45.8011 13.5026 45.259 13.5304 45.1717 13.9209C44.9038 15.1107 44.671 15.6114 44.2836 16.4015C44.2117 16.547 43.982 16.4964 43.9774 16.3326C43.8732 11.7067 42.685 7.33781 40.8919 4.90159C40.6867 4.6229 40.2794 4.77909 40.2794 5.12515V9.10487C40.2794 9.28097 39.9931 9.33478 39.9226 9.174C38.9763 6.98891 36.0378 1.54072 29.8547 0.294285C29.4672 0.217723 29.2728 0.707723 29.5821 0.952722C31.0107 2.07972 32.7747 3.76563 33.9615 5.96757C36.4605 9.65022 38.0698 15.3358 38.1923 18.7581C38.2 18.997 38.4618 19.1424 38.6593 19.0092C39.673 18.3171 40.2564 17.576 40.5765 17.0446C40.6637 16.8992 40.9792 16.9528 40.9899 17.1212C41.0802 18.5759 41.1982 21.6261 40.7617 23.5693C40.7005 23.8495 40.993 24.0792 41.2211 23.9062C41.6958 23.5448 42.2394 23.0793 42.6865 22.6796C43.005 22.3979 43.4874 22.6459 43.4108 23.0624" fill="url(#paint16_radial_2901_1841)"/>
<path fill-rule="evenodd" clip-rule="evenodd" d="M20.6733 35.6274C17.9508 33.9813 15.7427 30.7825 16.3858 27.0187C16.4088 26.8824 16.5879 26.8503 16.6614 26.9666C17.0121 27.5118 17.7134 28.5408 17.9798 28.4412C18.0763 28.406 18.0625 28.1687 18.0365 27.7353C17.9768 26.7446 17.8573 24.731 18.8435 21.7711C19.2508 20.5476 18.8496 19.1649 17.7517 18.4881C17.2347 18.1686 16.6208 18.0436 16.02 18.1357C15.4193 18.2277 14.8709 18.5307 14.4733 18.9904C13.4152 20.7038 12.8538 22.6779 12.8516 24.6917C12.8527 27.1023 13.6072 29.4518 15.0096 31.4124C16.4121 33.373 18.3923 34.8477 20.6733 35.6274Z" fill="url(#paint17_radial_2901_1841)"/>
<path fill-rule="evenodd" clip-rule="evenodd" d="M36.7237 40.0223C35.2123 41.2014 32.8175 42.6208 30.2358 43.2686C30.1807 43.2822 30.1229 43.2796 30.0692 43.2612C30.0156 43.2427 29.9685 43.2091 29.9335 43.1644C29.8985 43.1197 29.8772 43.0659 29.8722 43.0094C29.8671 42.9529 29.8785 42.8961 29.905 42.8459L30.8406 40.9732C30.867 40.9197 30.8773 40.8597 30.8702 40.8005C30.863 40.7412 30.8389 40.6853 30.8006 40.6396C30.7623 40.5938 30.7116 40.5602 30.6545 40.5428C30.5975 40.5253 30.5366 40.5249 30.4792 40.5414C29.0758 40.9513 27.6597 41.3164 26.2331 41.6362C25.9207 41.7051 25.7584 41.33 26.0126 41.1386L27.4428 40.0667C27.5791 39.9641 27.4657 39.7145 27.2973 39.739C26.4245 39.8768 24.9514 39.9917 23.4998 39.5782C22.5397 39.3041 21.8093 38.8601 21.2244 38.2062C19.627 37.852 18.1011 37.231 16.7104 36.369C16.3766 36.1623 15.9325 36.395 15.9325 36.787C15.9325 36.8595 15.9487 36.9282 15.9814 36.9935C16.3458 37.6672 18.698 41.6319 23.6316 41.6319C23.6316 41.6319 21.9687 42.1862 20.5232 42.3547C20.2506 42.3853 20.1435 42.7007 20.3854 42.8293C22.4572 43.9043 27.1474 43.7236 28.2514 43.1708C28.2514 43.1708 27.6558 44.3621 25.806 45.6974C25.561 45.8735 25.6713 46.267 25.9745 46.2578C30.412 46.1124 34.361 43.6253 36.7237 40.0223Z" fill="url(#paint18_radial_2901_1841)"/>
<defs>
<linearGradient id="paint0_linear_2901_1841" x1="59.6103" y1="36.2028" x2="36.9809" y2="59.4141" gradientUnits="userSpaceOnUse">
<stop stop-color="#FFB02E"/>
<stop offset="0.404" stop-color="#FFC27A"/>
<stop offset="0.48" stop-color="#FFC27A"/>
<stop offset="0.763" stop-color="#FC7931"/>
<stop offset="1" stop-color="#E56447"/>
</linearGradient>
<linearGradient id="paint1_linear_2901_1841" x1="20.7361" y1="46.2616" x2="25.4598" y2="33.4093" gradientUnits="userSpaceOnUse">
<stop offset="0.333" stop-color="#E56447"/>
<stop offset="0.754" stop-color="#E56447" stop-opacity="0"/>
</linearGradient>
<linearGradient id="paint2_linear_2901_1841" x1="21.6364" y1="46.2616" x2="25.9119" y2="33.7765" gradientUnits="userSpaceOnUse">
<stop offset="0.439" stop-color="#DC568E"/>
<stop offset="0.595" stop-color="#E56447" stop-opacity="0"/>
</linearGradient>
<linearGradient id="paint3_linear_2901_1841" x1="23.5166" y1="7.30385" x2="23.5166" y2="46.2635" gradientUnits="userSpaceOnUse">
<stop stop-color="#FD3A47"/>
<stop offset="1" stop-color="#D83152"/>
</linearGradient>
<radialGradient id="paint4_radial_2901_1841" cx="0" cy="0" r="1" gradientUnits="userSpaceOnUse" gradientTransform="translate(32.7245 36.2324) rotate(75.0457) scale(15.9566 15.1656)">
<stop offset="0.514" stop-color="#BE1A22"/>
<stop offset="1" stop-color="#E53550" stop-opacity="0"/>
</radialGradient>
<radialGradient id="paint5_radial_2901_1841" cx="0" cy="0" r="1" gradientUnits="userSpaceOnUse" gradientTransform="translate(30.9713 14.175) rotate(147.815) scale(47.6219 27.8875)">
<stop offset="0.474" stop-color="#FF7628"/>
<stop offset="0.56" stop-color="#F2523C"/>
<stop offset="0.646" stop-color="#C42530"/>
<stop offset="0.739" stop-color="#CA3842"/>
<stop offset="0.835" stop-color="#F63A61"/>
</radialGradient>
<radialGradient id="paint6_radial_2901_1841" cx="0" cy="0" r="1" gradientUnits="userSpaceOnUse" gradientTransform="translate(50.9568 30.2856) rotate(-168.58) scale(21.9296 10.6059)">
<stop offset="0.369" stop-color="#FF6723"/>
<stop offset="0.909" stop-color="#F63A61" stop-opacity="0"/>
</radialGradient>
<radialGradient id="paint7_radial_2901_1841" cx="0" cy="0" r="1" gradientUnits="userSpaceOnUse" gradientTransform="translate(15.3548 2.63364) rotate(50.544) scale(7.39928 5.79012)">
<stop offset="0.369" stop-color="#FF6723"/>
<stop offset="1" stop-color="#FF772A" stop-opacity="0"/>
</radialGradient>
<radialGradient id="paint8_radial_2901_1841" cx="0" cy="0" r="1" gradientUnits="userSpaceOnUse" gradientTransform="translate(26.7749 14.5171) rotate(156.853) scale(41.2757 13.3356)">
<stop offset="0.281" stop-color="#DE3E0D"/>
<stop offset="0.423" stop-color="#FF6745" stop-opacity="0"/>
</radialGradient>
<radialGradient id="paint9_radial_2901_1841" cx="0" cy="0" r="1" gradientUnits="userSpaceOnUse" gradientTransform="translate(32.6502 23.2711) rotate(168.884) scale(36.9673 21.0525)">
<stop offset="0.347" stop-color="#DE3E0D"/>
<stop offset="0.443" stop-color="#FF6745" stop-opacity="0"/>
</radialGradient>
<radialGradient id="paint10_radial_2901_1841" cx="0" cy="0" r="1" gradientUnits="userSpaceOnUse" gradientTransform="translate(19.971 8.17487) rotate(88.7798) scale(3.94292 6.46032)">
<stop offset="0.14" stop-color="white"/>
<stop offset="0.845" stop-color="white" stop-opacity="0"/>
</radialGradient>
<radialGradient id="paint11_radial_2901_1841" cx="0" cy="0" r="1" gradientUnits="userSpaceOnUse" gradientTransform="translate(10.3168 17.9447) rotate(-18.7883) scale(8.51449 7.23729)">
<stop offset="0.14" stop-color="white"/>
<stop offset="0.845" stop-color="white" stop-opacity="0"/>
</radialGradient>
<radialGradient id="paint12_radial_2901_1841" cx="0" cy="0" r="1" gradientUnits="userSpaceOnUse" gradientTransform="translate(51.8305 8.94215) rotate(109.077) scale(30.7886 30.7711)">
<stop stop-color="#8A6F99"/>
<stop offset="1" stop-color="#532C46"/>
</radialGradient>
<radialGradient id="paint13_radial_2901_1841" cx="0" cy="0" r="1" gradientUnits="userSpaceOnUse" gradientTransform="translate(34.245 16.8109) rotate(112.721) scale(42.5878 42.5662)">
<stop offset="0.017" stop-color="#695C5F"/>
<stop offset="0.832" stop-color="#4E252D"/>
</radialGradient>
<radialGradient id="paint14_radial_2901_1841" cx="0" cy="0" r="1" gradientUnits="userSpaceOnUse" gradientTransform="translate(31.8636 26.3709) rotate(148.276) scale(33.6573 17.7152)">
<stop offset="0.153" stop-color="#FB4B5C"/>
<stop offset="0.574" stop-color="#EF4152"/>
<stop offset="0.811" stop-color="#D93142"/>
<stop offset="1" stop-color="#B80013"/>
</radialGradient>
<radialGradient id="paint15_radial_2901_1841" cx="0" cy="0" r="1" gradientUnits="userSpaceOnUse" gradientTransform="translate(38.9727 19.7748) rotate(-168.245) scale(41.9031 54.0047)">
<stop offset="0.267" stop-color="#FFC14A"/>
<stop offset="0.651" stop-color="#FFAD36"/>
<stop offset="0.827" stop-color="#E09624"/>
</radialGradient>
<radialGradient id="paint16_radial_2901_1841" cx="0" cy="0" r="1" gradientUnits="userSpaceOnUse" gradientTransform="translate(23.5003 22.4144) rotate(160.049) scale(17.2863 29.3629)">
<stop offset="0.595" stop-color="#FFAD36"/>
<stop offset="0.858" stop-color="#FFC14A"/>
</radialGradient>
<radialGradient id="paint17_radial_2901_1841" cx="0" cy="0" r="1" gradientUnits="userSpaceOnUse" gradientTransform="translate(34.9669 16.7001) rotate(90) scale(29.5566 37.1236)">
<stop offset="0.018" stop-color="#FFB240"/>
<stop offset="0.45" stop-color="#FFB137"/>
<stop offset="0.697" stop-color="#EE9D28"/>
<stop offset="0.875" stop-color="#D98616"/>
</radialGradient>
<radialGradient id="paint18_radial_2901_1841" cx="0" cy="0" r="1" gradientUnits="userSpaceOnUse" gradientTransform="translate(26.3326 28.9329) rotate(90) scale(17.3022 20.2459)">
<stop offset="0.608" stop-color="#F6962C"/>
<stop offset="0.702" stop-color="#FFB82E"/>
<stop offset="0.87" stop-color="#FFB82E"/>
<stop offset="0.99" stop-color="#F6962C"/>
</radialGradient>
</defs>
</svg>
