<svg width="51" height="51" viewBox="0 0 51 51" fill="none" xmlns="http://www.w3.org/2000/svg">
<path d="M20.2079 25.5885C17.3422 30.4581 16.831 29.8704 12.6137 30.9629C8.39646 32.0553 6.67551 30.1275 6.89614 32.7813C7.12505 35.1748 7.35624 35.8367 8.81781 37.4432C10.904 39.7365 7.03221 42.2869 5.785 38.692C4.53779 35.0972 4.97717 32.244 4.97717 32.244L4.97876 32.2445C4.73143 29.754 6.56066 28.9714 9.04153 28.3287C11.8135 27.6106 12.794 26.0137 12.2289 23.832C12.229 23.832 23.0737 20.7189 20.2079 25.5885ZM34.5352 24.209C36.573 25.727 38.1275 26.1023 33.8865 27.1585C31.3505 27.7901 30.3219 30.6396 31.1354 33.013L31.0684 32.9792C31.1026 33.0216 31.1343 33.0616 31.1672 33.1029C31.4052 33.7563 31.7846 34.3704 32.3128 34.8885C32.5056 35.6796 31.4951 35.7476 29.0685 35.7476C26.861 35.7476 25.5452 36.9682 24.8442 37.9481C24.3529 38.4763 23.8027 39.1664 23.2705 40.0421C22.1952 41.8114 26.6478 43.6363 26.6421 41.0245C26.6377 39.0051 27.7251 37.794 29.1824 37.5667L29.1587 37.5577C29.5545 37.4796 30.0151 37.4329 30.5562 37.4329C34.179 37.4329 35.4697 36.3616 35.5341 35.3215C35.6053 35.1543 35.4288 34.8764 34.8329 34.4326C32.4249 32.639 35.6449 32.8115 39.5842 29.8772C43.5235 26.9429 44.468 27.1785 44.468 21.7964C44.468 16.4142 34.5352 24.209 34.5352 24.209Z" fill="#D19B61"/>
<path d="M25.0988 16.8652C24.78 16.9036 24.471 16.9254 24.1677 16.9254C21.3679 16.9254 16.4065 14.5113 15.9187 12.2303C15.909 12.1129 15.8959 11.9959 15.8794 11.8794L15.8792 11.8726L15.8787 11.8734C15.4586 8.96319 12.9553 6.72696 9.92884 6.72696C9.26315 6.72665 8.60207 6.83737 7.97281 7.05457C7.91145 7.07569 7.85099 7.0987 7.79053 7.12171C7.76164 7.13277 7.73236 7.14293 7.70367 7.15438C6.37089 7.6858 5.2732 8.6799 4.60861 9.93827C4.53919 9.93481 4.46992 9.92892 4.40092 9.92063C4.05388 9.87999 3.717 9.78327 3.43351 9.63515C3.14634 9.4951 2.91734 9.30575 2.73734 9.12017C2.64869 9.02534 2.57528 8.92683 2.50854 8.8335C2.47438 8.78738 2.44868 8.73708 2.42128 8.69116C2.39485 8.6465 2.37025 8.60077 2.34757 8.55409C2.30205 8.46425 2.26629 8.38017 2.24049 8.29561C2.2134 8.21293 2.18919 8.13962 2.17286 8.06929C2.14881 7.95859 2.13267 7.84631 2.12455 7.73331C2.11887 7.65402 2.11967 7.61 2.11967 7.61L2.24498 7.6082C2.32426 7.608 2.43593 7.6098 2.56532 7.61478C2.70109 7.6091 2.84811 7.61936 3.00928 7.6077C3.09086 7.59944 3.16726 7.60452 3.25033 7.59207C3.33281 7.57872 3.4118 7.57334 3.49039 7.55909C3.64817 7.52692 3.794 7.49246 3.92499 7.43747C4.05538 7.39046 4.17102 7.3275 4.28737 7.26853C4.40222 7.21226 4.52424 7.14342 4.66319 7.07848C4.69845 7.05876 4.73192 7.04999 4.77017 7.02828C4.80723 7.00835 4.84538 6.99192 4.88373 6.97598C4.96341 6.93464 5.0436 6.90307 5.13185 6.86103C5.21732 6.82467 5.31105 6.78105 5.40429 6.74449C5.50021 6.69986 5.59733 6.665 5.70023 6.62207C5.91226 6.53763 6.12759 6.4617 6.34569 6.39446C6.56882 6.32613 6.80539 6.26457 7.03688 6.22025C7.26678 6.17632 7.4925 6.14713 7.71373 6.13588C7.77083 6.40016 7.84537 6.66038 7.93685 6.91482C7.95319 6.89938 7.96813 6.88474 7.98506 6.8691L8.20341 6.67546C8.281 6.61231 8.36229 6.54497 8.44914 6.48112C8.63468 6.34059 8.82931 6.21248 9.03176 6.09763C9.46476 5.8499 9.99558 5.62767 10.6697 5.50316C11.0067 5.4424 11.3797 5.41002 11.7891 5.41998C12.1969 5.43473 12.6434 5.48712 13.1061 5.61343C13.3389 5.67249 13.5725 5.75417 13.809 5.84681C14.0441 5.94313 14.2785 6.05599 14.5092 6.18279C14.9726 6.44497 15.4094 6.75162 15.8135 7.0984C16.2145 7.44644 16.5719 7.82834 16.8867 8.22C17.1998 8.61316 17.4655 9.01987 17.7001 9.42348C17.9311 9.8284 18.1244 10.235 18.2956 10.6349C18.3404 10.7353 18.3763 10.8352 18.4166 10.9355L18.4899 11.1418L18.5085 11.2037L18.5365 11.2827L18.5944 11.4431C18.7526 11.8718 18.9384 12.2899 19.1508 12.6946C19.3584 13.0954 19.5905 13.4656 19.8297 13.8051C19.9479 13.9692 20.0716 14.1291 20.2008 14.2847C20.322 14.4341 20.4527 14.5755 20.592 14.7081C20.8571 14.9792 21.1433 15.1966 21.4411 15.3916C21.5159 15.4387 21.5915 15.4826 21.6679 15.5233C21.744 15.5669 21.8208 15.6088 21.898 15.6465C22.0526 15.7231 22.2081 15.7827 22.3621 15.8442C22.6439 15.9472 22.9329 16.0294 23.2268 16.09C23.3441 16.1164 23.4622 16.1388 23.581 16.1572C23.6875 16.1779 23.7791 16.189 23.8549 16.2006L24.0917 16.235L24.4645 16.2892C24.6157 16.3109 24.7568 16.3774 24.8699 16.4801C24.9829 16.5827 25.0626 16.7169 25.0988 16.8652ZM50.6856 13.8919C50.6065 13.4354 50.4626 12.9899 50.2635 12.5865C50.0673 12.1807 49.8225 11.8132 49.5553 11.4845C49.423 11.3234 49.2834 11.1683 49.1372 11.0197C49.024 10.9039 48.9093 10.7896 48.7933 10.6766L48.1709 10.0558C47.7575 9.64233 47.3699 9.23771 47.0213 8.84087C46.8504 8.64185 46.685 8.44403 46.5439 8.2451C46.4669 8.14619 46.4062 8.04638 46.3385 7.94628C46.2799 7.84597 46.2168 7.74526 46.1678 7.64396C45.9532 7.24034 45.8363 6.82129 45.8111 6.40353C45.7993 6.19534 45.8016 5.98766 45.8316 5.78943C45.8415 5.68953 45.8625 5.59251 45.8796 5.49688C45.9008 5.40215 45.9243 5.30972 45.9479 5.21967C46.0495 4.86088 46.1754 4.54751 46.2828 4.28762C46.3926 4.02864 46.4838 3.82195 46.5463 3.68051C46.6112 3.54045 46.643 3.46276 46.643 3.46276L46.644 3.46037C46.6532 3.43758 46.6546 3.41236 46.648 3.38868C46.6413 3.365 46.6269 3.34422 46.6071 3.32964C46.5873 3.31505 46.5632 3.30749 46.5386 3.30814C46.514 3.3088 46.4903 3.31764 46.4713 3.33327C46.4713 3.33327 46.4062 3.38696 46.2892 3.49324C46.1189 3.64718 45.9564 3.80945 45.8021 3.97943C45.6016 4.20067 45.3728 4.48575 45.14 4.84952C44.9109 5.21429 44.6719 5.66124 44.5017 6.21437C44.4136 6.49009 44.3602 6.7929 44.3251 7.11235C44.2894 7.43269 44.2924 7.76927 44.3248 8.11053C44.3899 8.79555 44.5872 9.48952 44.8755 10.1382C45.1643 10.787 45.5407 11.3961 45.9664 11.9565C46.0752 12.094 46.1829 12.2312 46.298 12.3677L46.4761 12.5718L46.5661 12.6735L46.6115 12.724L46.6531 12.7687C46.7644 12.8891 46.8754 13.0025 46.9918 13.125C47.0763 13.2116 47.1554 13.2995 47.2279 13.3882C47.5199 13.7435 47.7081 14.0988 47.7921 14.4456C47.879 14.7919 47.873 15.1536 47.7682 15.5344C47.6674 15.9139 47.4637 16.2944 47.2158 16.6321C47.0904 16.8002 46.9517 16.9557 46.809 17.0992C46.6653 17.2416 46.5143 17.3674 46.3651 17.4816C46.0634 17.7053 45.7614 17.8615 45.4931 17.9554C45.3173 18.0158 45.1575 18.0491 45.0132 18.0644C45.399 18.5723 45.7146 19.1298 45.9516 19.722C46.4007 19.6965 46.8781 19.5932 47.3537 19.405C47.6398 19.2946 47.9236 19.1506 48.204 18.9787C48.4861 18.8086 48.7601 18.6038 49.0225 18.366C49.1552 18.2487 49.2825 18.1205 49.4087 17.9864C49.5351 17.8473 49.6546 17.7021 49.7668 17.5514C49.9948 17.2433 50.2013 16.8981 50.3649 16.5136C50.531 16.1314 50.651 15.7076 50.7114 15.2625C50.7688 14.8171 50.7649 14.3487 50.6856 13.8919Z" fill="#2B3B47"/>
<path d="M46.423 22.128C46.423 22.0037 46.4193 21.8855 46.4128 21.7719L46.412 21.7594C46.4067 21.6685 46.399 21.5779 46.3888 21.4874C46.0248 17.8889 42.636 14.9034 38.5072 14.9034C30.5889 14.9034 27.1145 16.9247 24.1677 16.9247C21.3679 16.9247 16.4066 14.5107 15.9187 12.2296C15.9091 12.1123 15.896 11.9953 15.8794 11.8787L15.8792 11.8719L15.8787 11.8727C15.4989 9.24206 13.4168 7.16251 10.7849 6.78718C10.3561 5.53489 9.32474 4.53013 9.07223 4.29984C9.05998 4.29018 9.04912 4.28011 9.03717 4.26916C9.0296 4.26358 9.01047 4.24595 9.01047 4.24595L9.00729 4.24575C8.67718 3.96744 8.30624 3.7994 8.06538 3.71015C7.92105 3.65666 7.76217 3.73655 7.71615 3.88347C7.65917 4.06496 7.59223 4.32484 7.56813 4.60225L7.56673 4.60265C7.56693 4.60703 7.56803 4.61002 7.56664 4.61251C7.54518 4.89521 7.5583 5.17947 7.60568 5.45899C7.67132 6.07996 7.81705 6.61028 7.98629 7.04886C5.61917 7.85689 3.91605 10.0984 3.91605 12.7391C3.7749 13.4951 2.32091 14.885 1.123 16.1323L1.1235 16.1324C0.639201 16.5382 0.330811 17.1471 0.330811 17.8284C0.330811 18.985 1.21883 19.9329 2.34999 20.0309C2.40903 20.0374 2.47341 20.0406 2.54313 20.0407C2.61685 20.0407 2.69205 20.0365 2.76815 20.0294L2.77303 20.0288C3.91994 19.9193 5.32542 19.0319 6.56765 18.2039C6.89497 17.9858 7.28544 17.8883 7.6779 17.9167C7.90222 17.9329 8.13291 17.9263 8.36789 17.8937C8.523 17.8718 8.67628 17.8385 8.8265 17.7941C8.99258 17.7388 9.15619 17.6762 9.31687 17.6068C9.47431 17.5314 9.6255 17.4436 9.769 17.3443C9.77109 17.3576 9.77398 17.3706 9.77617 17.3839C10.4589 17.0192 10.684 16.764 11.1787 17.1821C11.9355 17.822 11.8316 18.3116 11.6278 20.2166C11.6337 20.2197 11.6393 20.2234 11.6451 20.2265C11.623 20.4228 11.5966 20.6305 11.5695 20.8531C11.5656 20.8678 11.5622 20.8827 11.5583 20.8973C11.501 21.4851 11.4543 22.0739 11.4182 22.6633C11.4076 22.8421 11.3893 23.0203 11.3634 23.1975C11.5238 25.0049 12.4062 26.6037 13.7191 27.7066C14.9089 29.3349 15.1713 31.1699 13.2228 33.1184C11.0446 35.2966 9.64399 37.2157 11.5825 39.671C13.7902 42.7819 12.4812 42.4591 15.3574 44.9502C18.1001 47.3257 21.4308 42.8302 18.2639 42.1977C16.4677 41.8389 15.351 41.1472 14.0628 39.9574C11.8815 37.7619 14.7941 37.2593 18.3975 33.6559C19.2867 32.7667 20.0091 32.1142 20.5935 31.5365C20.5995 31.5365 20.6055 31.5374 20.6116 31.5374C29.7277 31.5374 31.5951 27.1377 35.4212 28.6439C33.9013 29.9854 33.3618 32.8005 33.9786 35.2162L33.9171 35.1745C33.9485 35.2268 33.9776 35.276 34.0077 35.3267C34.226 36.1307 34.5737 36.8864 35.0578 37.524C35.2346 38.4975 34.3083 38.5813 32.084 38.5813C30.3253 38.5813 29.1848 39.7161 28.4942 40.8048C28.0378 41.4535 27.7773 42.4064 27.7374 44.3226C27.6762 47.271 32.2932 47.0201 31.5231 44.5244C30.9289 42.5987 30.6902 41.503 32.008 40.8585C32.3988 40.7322 32.8712 40.655 33.4477 40.655C36.7686 40.655 40.7325 40.4835 37.368 36.9627C35.2114 34.706 38.3532 32.9853 41.7232 31.3569C41.7631 31.3376 41.8017 31.3175 41.8411 31.298C42.0415 31.2126 42.2338 31.1097 42.416 30.9904C45.0772 29.4568 46.423 27.0133 46.423 22.128Z" fill="#AF773F"/>
<path d="M26.0848 42.5385C25.0198 44.1928 22.2943 40.9369 23.1158 39.963C23.3873 39.6412 24.316 38.5029 24.5336 38.2465C24.9976 39.3785 26.7272 40.419 26.7272 40.7467C26.7272 41.593 26.1626 42.4177 26.0848 42.5385ZM2.09061 15.1355C1.76927 15.4685 1.43737 15.8056 1.123 16.133L1.1235 16.1331C0.639201 16.5389 0.330811 17.1477 0.330811 17.829C0.330811 18.9857 1.21883 19.9336 2.34999 20.0316C2.40903 20.038 2.47341 20.0413 2.54313 20.0414C2.61685 20.0414 2.69205 20.0371 2.76815 20.03L2.77303 20.0294C3.77391 19.9339 4.97161 19.2456 6.08604 18.5216C5.64368 16.9196 3.67978 15.1555 2.09061 15.1355ZM17.5329 42.0395C16.91 43.1672 16.2551 44.2077 15.2179 44.8566C15.5075 45.0277 16.5493 45.9186 16.9125 46.1317C18.0113 46.7765 21.1236 43.2788 18.9783 42.2573C18.8485 42.1956 17.6658 42.0604 17.5329 42.0395ZM8.74203 37.3748C7.83588 38.1803 7.09379 38.8582 5.9437 39.0859C6.06064 39.491 6.69864 40.5484 6.97276 40.8678C7.80231 41.834 11.5716 39.9179 9.88265 38.2466C9.78045 38.1454 8.85907 37.4399 8.74203 37.3748ZM31.402 44.1258C30.1159 44.0488 28.7188 43.852 27.6867 43.195C27.6569 43.5299 27.555 44.9955 27.519 45.4151C27.4098 46.6844 31.9119 47.4899 31.8274 45.5242C31.8211 45.3807 31.4403 44.2549 31.402 44.1258Z" fill="#D9DBD5"/>
<path d="M7.48222 10.3996C7.58596 10.392 7.69018 10.4049 7.78891 10.4377C7.88765 10.4704 7.97897 10.5223 8.05766 10.5903C8.13635 10.6583 8.20087 10.7412 8.24753 10.8341C8.29419 10.9271 8.32208 11.0283 8.3296 11.1321L8.42891 12.498C8.44152 12.7061 8.37163 12.9107 8.23438 13.0676C8.09712 13.2244 7.90358 13.3209 7.6957 13.336C7.48782 13.3511 7.28236 13.2836 7.12386 13.1483C6.96537 13.0129 6.86661 12.8206 6.849 12.6129L6.74969 11.2469C6.74213 11.1432 6.75509 11.039 6.78781 10.9402C6.82054 10.8415 6.87239 10.7502 6.94042 10.6715C7.00844 10.5928 7.0913 10.5283 7.18427 10.4816C7.27723 10.435 7.37848 10.4071 7.48222 10.3996ZM2.85138 16.932C2.74158 16.9401 2.63946 16.9914 2.56746 17.0746C2.49546 17.1579 2.45946 17.2664 2.46739 17.3762L2.51948 18.0923C2.52319 18.1468 2.53764 18.2001 2.56201 18.2491C2.58637 18.298 2.62016 18.3417 2.66144 18.3776C2.70273 18.4134 2.75069 18.4408 2.80257 18.458C2.85446 18.4753 2.90924 18.4822 2.96378 18.4782C3.01832 18.4742 3.07154 18.4595 3.12038 18.435C3.16922 18.4104 3.21273 18.3764 3.24839 18.3349C3.28406 18.2935 3.31119 18.2454 3.32822 18.1934C3.34525 18.1415 3.35185 18.0866 3.34763 18.0321L3.29554 17.316C3.28751 17.2062 3.23622 17.1041 3.15293 17.0321C3.06965 16.9601 2.96119 16.9241 2.85138 16.932Z" fill="#2B3B47"/>
<path d="M6.97811 7.50215L7.12951 7.56002C7.19026 7.58296 7.25577 7.59039 7.32011 7.58165C7.38446 7.57291 7.44561 7.54826 7.49803 7.50995C7.55046 7.47163 7.59251 7.42085 7.62037 7.3622C7.64824 7.30355 7.66105 7.23888 7.65764 7.17403C7.42445 7.26898 7.19748 7.37857 6.97811 7.50215ZM4.99987 6.05064C5.0411 6.18501 5.10466 6.30106 5.16711 6.40674C5.23574 6.51014 5.30477 6.60257 5.38107 6.67957C5.39771 6.6985 5.41484 6.71573 5.43237 6.73247C5.51933 6.69362 5.60738 6.66075 5.70032 6.622C5.91236 6.53756 6.12769 6.46163 6.34579 6.39439C6.56792 6.32636 6.80339 6.2651 7.03389 6.22077C7.02214 6.20991 7.01078 6.19886 6.99893 6.188C6.9294 6.12614 6.85778 6.06269 6.78556 6.0085C6.71325 5.95282 6.64362 5.89774 6.57509 5.84853C6.51018 5.80161 6.44603 5.75366 6.38264 5.7047C6.32638 5.66386 6.27172 5.62087 6.21879 5.5758C6.17207 5.53426 6.12466 5.49552 6.08999 5.45478C6.05483 5.41374 6.01907 5.37041 5.99566 5.3208C5.96897 5.2714 5.95542 5.21641 5.94566 5.16023C5.93968 5.10465 5.9355 5.04698 5.93799 4.99378C5.93819 4.94019 5.94825 4.89278 5.95253 4.85164L5.97833 4.72095C5.98302 4.69724 5.98213 4.67277 5.97571 4.64946C5.9693 4.62616 5.95755 4.60467 5.94138 4.5867C5.92522 4.56873 5.90509 4.55477 5.8826 4.54593C5.8601 4.53709 5.83586 4.53362 5.81178 4.53578L5.7565 4.54066C5.7565 4.54066 5.73817 4.54225 5.70669 4.54903C5.67641 4.5568 5.62711 4.56536 5.57172 4.58578C5.51744 4.60859 5.4503 4.63639 5.38157 4.6844C5.34651 4.7082 5.31135 4.7349 5.27469 4.76707C5.23933 4.80044 5.20407 4.8372 5.16821 4.87933C5.10097 4.96589 5.03463 5.07307 4.9914 5.20247C4.94598 5.33056 4.92297 5.47808 4.92606 5.62541C4.92456 5.70041 4.93542 5.77213 4.94727 5.84455C4.95923 5.91457 4.97586 5.98699 4.99987 6.05064Z" fill="#AF773F"/>
</svg>
