<svg width="31" height="31" viewBox="0 0 31 31" fill="none" xmlns="http://www.w3.org/2000/svg">
<g clip-path="url(#clip0_2504_6774)">
<path d="M9.04167 16.7917H0.011625V14.2083H6.55779C6.66086 13.4863 6.85216 12.7796 7.12742 12.1042L1.47637 8.81175L2.7745 6.57975L8.432 9.87479C8.86749 9.32705 9.36413 8.83085 9.91225 8.39583L6.62754 2.74738L8.85825 1.44796L12.1417 7.10417C12.8057 6.83669 13.4996 6.65021 14.2083 6.54875V0H16.7917V6.55004C17.5053 6.65312 18.204 6.84177 18.8725 7.11192L22.1637 1.44796L24.3944 2.74738L21.102 8.41133C21.6474 8.84437 22.1414 9.33842 22.5745 9.88383L28.2462 6.57975L29.5443 8.81175L23.8765 12.1145C24.1492 12.7869 24.3392 13.49 24.4422 14.2083H30.9884V16.7917H21.9583V15.5C21.6806 6.96208 9.31679 6.975 9.04167 15.5V16.7917ZM27.1108 28.4167C26.4256 28.4167 25.7686 28.1445 25.2841 27.66C24.7996 27.1756 24.5275 26.5185 24.5275 25.8333H21.9583C21.9583 26.5185 21.6862 27.1756 21.2017 27.66C20.7172 28.1445 20.0601 28.4167 19.375 28.4167C18.6899 28.4167 18.0328 28.1445 17.5483 27.66C17.0638 27.1756 16.7917 26.5185 16.7917 25.8333H14.2083C14.2083 26.5185 13.9362 27.1756 13.4517 27.66C12.9672 28.1445 12.3101 28.4167 11.625 28.4167C10.9399 28.4167 10.2828 28.1445 9.79831 27.66C9.31384 27.1756 9.04167 26.5185 9.04167 25.8333H6.45833C6.45155 26.355 6.28754 26.8625 5.98774 27.2894C5.68794 27.7163 5.2663 28.0429 4.77794 28.2264C4.28958 28.4099 3.75722 28.4418 3.25045 28.3178C2.74369 28.1939 2.2861 27.92 1.9375 27.5319L0 29.233C0.486574 29.7803 1.08332 30.2187 1.75112 30.5193C2.41892 30.8198 3.14271 30.9759 3.87505 30.9773C4.60738 30.9786 5.33174 30.8252 6.00064 30.527C6.66954 30.2289 7.26788 29.7927 7.75646 29.2472C8.24499 29.7909 8.84248 30.2258 9.51009 30.5235C10.1777 30.8211 10.9005 30.975 11.6315 30.975C12.3624 30.975 13.0852 30.8211 13.7528 30.5235C14.4204 30.2258 15.0179 29.7909 15.5065 29.2472C15.995 29.7909 16.5925 30.2258 17.2601 30.5235C17.9277 30.8211 18.6505 30.975 19.3815 30.975C20.1124 30.975 20.8352 30.8211 21.5028 30.5235C22.1704 30.2258 22.7679 29.7909 23.2565 29.2472C23.745 29.7918 24.343 30.2271 25.0113 30.5246C25.6797 30.8221 26.4033 30.9751 27.1349 30.9737C27.8665 30.9722 28.5895 30.8163 29.2567 30.5161C29.9239 30.2159 30.5201 29.7782 31.0065 29.2317L29.0612 27.5332C28.8193 27.8113 28.5204 28.0342 28.1847 28.1866C27.8491 28.339 27.4846 28.4175 27.116 28.4167H27.1108ZM3.88404 24.5417C4.61748 24.5421 5.34257 24.386 6.01083 24.0837C6.67908 23.7815 7.27511 23.34 7.75904 22.7889C8.24757 23.3326 8.84506 23.7675 9.51268 24.0651C10.1803 24.3628 10.9031 24.5166 11.634 24.5166C12.365 24.5166 13.0878 24.3628 13.7554 24.0651C14.423 23.7675 15.0205 23.3326 15.509 22.7889C15.9976 23.3326 16.5951 23.7675 17.2627 24.0651C17.9303 24.3628 18.6531 24.5166 19.384 24.5166C20.115 24.5166 20.8378 24.3628 21.5054 24.0651C22.173 23.7675 22.7705 23.3326 23.259 22.7889C23.7476 23.3335 24.3456 23.7687 25.0139 24.0662C25.6823 24.3638 26.4059 24.5168 27.1375 24.5153C27.8691 24.5139 28.5921 24.3579 29.2593 24.0578C29.9264 23.7576 30.5227 23.3199 31.009 22.7734L29.0638 21.0748C28.7152 21.4635 28.2574 21.7379 27.7503 21.862C27.2432 21.9862 26.7104 21.9543 26.2217 21.7706C25.733 21.5869 25.3112 21.2599 25.0114 20.8325C24.7116 20.405 24.5479 19.897 24.5417 19.375H21.9583C21.9583 20.0601 21.6862 20.7172 21.2017 21.2017C20.7172 21.6862 20.0601 21.9583 19.375 21.9583C18.6899 21.9583 18.0328 21.6862 17.5483 21.2017C17.0638 20.7172 16.7917 20.0601 16.7917 19.375H14.2083C14.2083 20.0601 13.9362 20.7172 13.4517 21.2017C12.9672 21.6862 12.3101 21.9583 11.625 21.9583C10.9399 21.9583 10.2828 21.6862 9.79831 21.2017C9.31384 20.7172 9.04167 20.0601 9.04167 19.375H6.45833C6.45155 19.8967 6.28754 20.4041 5.98774 20.8311C5.68794 21.258 5.2663 21.5846 4.77794 21.7681C4.28958 21.9515 3.75722 21.9834 3.25045 21.8595C2.74369 21.7356 2.2861 21.4617 1.9375 21.0735L0 22.7747C0.483845 23.3293 1.08079 23.7739 1.75072 24.0787C2.42064 24.3835 3.14804 24.5413 3.88404 24.5417Z" fill="#0B1956"/>
</g>
<defs>
<clipPath id="clip0_2504_6774">
<rect width="31" height="31" fill="white"/>
</clipPath>
</defs>
</svg>
