<svg width="32" height="32" viewBox="0 0 32 32" fill="none" xmlns="http://www.w3.org/2000/svg">
<g clip-path="url(#clip0_2504_6842)">
<path d="M30.3533 9.49293L18.3533 0.766258C17.6695 0.268738 16.8456 0.000732422 16 0.000732422C15.1544 0.000732422 14.3305 0.268738 13.6467 0.766258L1.64667 9.49293C1.13757 9.86531 0.723238 10.3523 0.437179 10.9144C0.151119 11.4766 0.00135673 12.0982 0 12.7289L0 17.3343H14.6667V32.0009H17.3333V17.3343H32V12.7289C31.9986 12.0982 31.8489 11.4766 31.5628 10.9144C31.2768 10.3523 30.8624 9.86531 30.3533 9.49293ZM2.66667 12.7289C2.66702 12.5186 2.7168 12.3112 2.81198 12.1236C2.90717 11.936 3.0451 11.7734 3.21467 11.6489L11.6 5.55426L8.66667 9.96359C8.2307 10.6188 7.99871 11.3886 8 12.1756V14.6676H2.66667V12.7289ZM10.6667 14.6676V12.1756C10.6667 11.9133 10.7442 11.6568 10.8893 11.4383L14.6667 5.75159V14.6676H10.6667ZM17.3333 5.75159L21.1107 11.4369C21.2561 11.6558 21.3335 11.9128 21.3333 12.1756V14.6676H17.3333V5.75159ZM29.3333 14.6676H24V12.1756C24.0011 11.3882 23.7691 10.6181 23.3333 9.96226L20.4 5.55559L28.7773 11.6476C28.9486 11.7714 29.0881 11.9338 29.1848 12.1217C29.2814 12.3096 29.3323 12.5176 29.3333 12.7289V14.6676Z" fill="#0B1956"/>
<path d="M6.66667 25.3333H2.66667V20H0V32H2.66667V28H6.66667V32H9.33333V28C9.33333 27.2928 9.05238 26.6145 8.55229 26.1144C8.05219 25.6143 7.37391 25.3333 6.66667 25.3333Z" fill="#0B1956"/>
<path d="M29.3334 25.3333H25.3334C24.6262 25.3333 23.9479 25.6143 23.4478 26.1144C22.9477 26.6145 22.6667 27.2928 22.6667 28V32H25.3334V28H29.3334V32H32.0001V20H29.3334V25.3333Z" fill="#0B1956"/>
</g>
<defs>
<clipPath id="clip0_2504_6842">
<rect width="32" height="32" fill="white"/>
</clipPath>
</defs>
</svg>
