<svg width="40" height="40" viewBox="0 0 40 40" fill="none" xmlns="http://www.w3.org/2000/svg">
<path d="M38.25 23.5001C38.1187 23.5986 37.9692 23.6703 37.8102 23.711C37.6512 23.7517 37.4857 23.7608 37.3232 23.7376C37.1607 23.7143 37.0044 23.6593 36.8631 23.5757C36.7219 23.4921 36.5985 23.3814 36.5 23.2501C35.7466 22.2374 34.7659 21.4157 33.6369 20.8512C32.5079 20.2867 31.2622 19.9952 30 20.0001C29.7542 20.0001 29.5138 19.9276 29.309 19.7917C29.1042 19.6558 28.944 19.4625 28.8484 19.2361C28.7835 19.0823 28.7501 18.917 28.7501 18.7501C28.7501 18.5832 28.7835 18.418 28.8484 18.2642C28.944 18.0377 29.1042 17.8444 29.309 17.7085C29.5138 17.5726 29.7542 17.5001 30 17.5001C30.7013 17.5001 31.3886 17.3033 31.9838 16.9322C32.5789 16.5611 33.0581 16.0306 33.3668 15.4008C33.6755 14.771 33.8015 14.0673 33.7303 13.3696C33.6591 12.6718 33.3937 12.008 32.9642 11.4536C32.5347 10.8991 31.9583 10.4762 31.3005 10.233C30.6426 9.98967 29.9298 9.93573 29.2428 10.0773C28.5559 10.2188 27.9225 10.5502 27.4144 11.0337C26.9063 11.5172 26.5441 12.1335 26.3687 12.8126C26.3277 12.9716 26.2557 13.121 26.157 13.2522C26.0582 13.3834 25.9346 13.4939 25.7931 13.5773C25.6516 13.6608 25.4951 13.7155 25.3325 13.7385C25.1699 13.7614 25.0043 13.7521 24.8453 13.7111C24.6863 13.67 24.5369 13.5981 24.4057 13.4993C24.2745 13.4005 24.164 13.2769 24.0806 13.1354C23.9971 12.9939 23.9424 12.8374 23.9194 12.6748C23.8965 12.5122 23.9058 12.3466 23.9469 12.1876C24.1902 11.2459 24.65 10.374 25.2897 9.64129C25.9293 8.90856 26.7311 8.33523 27.6313 7.96691C28.5315 7.5986 29.5052 7.44546 30.475 7.5197C31.4448 7.59393 32.3839 7.89348 33.2176 8.39451C34.0513 8.89554 34.7565 9.58423 35.2771 10.4058C35.7978 11.2273 36.1195 12.159 36.2167 13.1268C36.314 14.0946 36.184 15.0717 35.8371 15.9803C35.4902 16.889 34.9361 17.7042 34.2187 18.3611C35.9184 19.097 37.396 20.2648 38.5047 21.7486C38.6032 21.8802 38.6747 22.03 38.7152 22.1893C38.7557 22.3487 38.7644 22.5145 38.7407 22.6772C38.7171 22.8399 38.6615 22.9963 38.5773 23.1375C38.4931 23.2787 38.3819 23.402 38.25 23.5001ZM29.8312 33.1251C29.9217 33.2674 29.9824 33.4265 30.0098 33.5928C30.0371 33.7592 30.0306 33.9294 29.9904 34.0931C29.9503 34.2568 29.8775 34.4108 29.7764 34.5457C29.6752 34.6805 29.5479 34.7936 29.4019 34.8779C29.2559 34.9623 29.0944 35.0163 28.9271 35.0366C28.7597 35.0569 28.59 35.0432 28.4281 34.9962C28.2662 34.9492 28.1154 34.87 27.9849 34.7633C27.8544 34.6565 27.7469 34.5245 27.6687 34.3751C26.8813 33.0418 25.7599 31.9368 24.415 31.1692C23.0702 30.4016 21.5485 29.9978 20 29.9978C18.4515 29.9978 16.9298 30.4016 15.5849 31.1692C14.2401 31.9368 13.1187 33.0418 12.3312 34.3751C12.2531 34.5245 12.1455 34.6565 12.015 34.7633C11.8846 34.87 11.7338 34.9492 11.5719 34.9962C11.41 35.0432 11.2403 35.0569 11.0729 35.0366C10.9055 35.0163 10.744 34.9623 10.5981 34.8779C10.4521 34.7936 10.3247 34.6805 10.2236 34.5457C10.1224 34.4108 10.0496 34.2568 10.0095 34.0931C9.96941 33.9294 9.96284 33.7592 9.9902 33.5928C10.0176 33.4265 10.0783 33.2674 10.1687 33.1251C11.3806 31.0429 13.2284 29.4043 15.4406 28.4501C14.1958 27.497 13.281 26.1779 12.8247 24.678C12.3684 23.1781 12.3936 21.5729 12.8967 20.0881C13.3999 18.6033 14.3557 17.3134 15.6298 16.3999C16.9039 15.4864 18.4322 14.9951 20 14.9951C21.5677 14.9951 23.0961 15.4864 24.3702 16.3999C25.6443 17.3134 26.6001 18.6033 27.1032 20.0881C27.6064 21.5729 27.6316 23.1781 27.1753 24.678C26.719 26.1779 25.8042 27.497 24.5594 28.4501C26.7716 29.4043 28.6194 31.0429 29.8312 33.1251ZM20 27.5001C20.9889 27.5001 21.9556 27.2069 22.7778 26.6575C23.6001 26.1081 24.2409 25.3272 24.6194 24.4135C24.9978 23.4999 25.0968 22.4946 24.9039 21.5247C24.711 20.5548 24.2348 19.6638 23.5355 18.9646C22.8363 18.2653 21.9453 17.7891 20.9754 17.5962C20.0055 17.4033 19.0002 17.5023 18.0866 17.8807C17.1729 18.2592 16.392 18.9 15.8426 19.7223C15.2932 20.5445 15 21.5112 15 22.5001C15 23.8262 15.5268 25.098 16.4645 26.0356C17.4021 26.9733 18.6739 27.5001 20 27.5001ZM11.25 18.7501C11.25 18.4186 11.1183 18.1007 10.8839 17.8662C10.6494 17.6318 10.3315 17.5001 9.99998 17.5001C9.29862 17.5001 8.61133 17.3033 8.01619 16.9322C7.42104 16.5611 6.94189 16.0306 6.63316 15.4008C6.32443 14.771 6.1985 14.0673 6.26967 13.3696C6.34084 12.6718 6.60626 12.008 7.03578 11.4536C7.4653 10.8991 8.0417 10.4762 8.69952 10.233C9.35733 9.98967 10.0702 9.93573 10.7571 10.0773C11.4441 10.2188 12.0775 10.5502 12.5856 11.0337C13.0936 11.5172 13.4559 12.1335 13.6312 12.8126C13.7141 13.1338 13.9212 13.4089 14.2069 13.5773C14.4926 13.7458 14.8335 13.7939 15.1547 13.7111C15.4758 13.6282 15.7509 13.4211 15.9194 13.1354C16.0879 12.8497 16.136 12.5088 16.0531 12.1876C15.8097 11.2459 15.3499 10.374 14.7103 9.64129C14.0707 8.90856 13.2689 8.33523 12.3687 7.96691C11.4685 7.5986 10.4947 7.44546 9.52492 7.5197C8.55512 7.59393 7.61603 7.89348 6.78237 8.39451C5.94871 8.89554 5.24349 9.58423 4.72283 10.4058C4.20217 11.2273 3.88043 12.159 3.78322 13.1268C3.68601 14.0946 3.816 15.0717 4.16287 15.9803C4.50973 16.889 5.06388 17.7042 5.78124 18.3611C4.08324 19.0977 2.60735 20.2655 1.49999 21.7486C1.30087 22.0138 1.21526 22.3472 1.262 22.6756C1.30873 23.0039 1.48399 23.3002 1.7492 23.4993C2.01442 23.6985 2.34787 23.7841 2.67621 23.7373C3.00455 23.6906 3.30087 23.5153 3.49999 23.2501C4.2534 22.2374 5.23407 21.4157 6.36304 20.8512C7.49202 20.2867 8.73776 19.9952 9.99998 20.0001C10.3315 20.0001 10.6494 19.8684 10.8839 19.634C11.1183 19.3996 11.25 19.0816 11.25 18.7501Z" fill="#091F5B"/>
</svg>
