<svg width="49" height="49" viewBox="0 0 49 49" fill="none" xmlns="http://www.w3.org/2000/svg">
<path d="M7.54131 17.483C7.52599 17.483 7.51068 17.483 7.49537 17.4792C7.4724 17.4754 6.89818 17.4103 5.92201 17.2342C4.85779 17.039 4.15724 16.9586 4.14959 16.9586C3.9199 16.9318 3.75146 16.7251 3.77826 16.4916C3.80506 16.2619 4.0156 16.0934 4.24529 16.1202C4.27592 16.1241 4.98029 16.2045 6.07513 16.4035C7.02068 16.5758 7.58724 16.6409 7.59107 16.6409C7.82076 16.6677 7.9892 16.8744 7.9624 17.1079C7.9356 17.3223 7.75185 17.483 7.54131 17.483ZM4.12662 19.1713C3.91607 19.1713 3.73232 19.0143 3.70935 18.7999C3.70296 18.7449 3.7075 18.6891 3.72272 18.6358C3.73794 18.5825 3.76353 18.5327 3.79803 18.4893C3.83253 18.4459 3.87526 18.4097 3.92376 18.3829C3.97227 18.3561 4.02559 18.3391 4.08068 18.3329C4.09217 18.3329 5.15638 18.2066 5.69615 18.1185C6.25506 18.0305 7.51068 17.8314 7.51068 17.8314L7.64084 18.6621L5.83013 18.9492C5.27123 19.0411 4.22232 19.1636 4.17638 19.1674C4.15724 19.1674 4.14193 19.1713 4.12662 19.1713ZM4.78888 20.9322C4.60513 20.9322 4.4367 20.8135 4.3831 20.6259C4.31802 20.4039 4.44818 20.1704 4.67404 20.1053L7.6906 19.244C7.79718 19.2168 7.91018 19.2322 8.00551 19.2871C8.10084 19.342 8.17096 19.432 8.20092 19.5378C8.23087 19.6437 8.2183 19.757 8.16588 19.8538C8.11346 19.9505 8.02533 20.0229 7.92029 20.0555L4.90373 20.9169C4.86927 20.9245 4.82717 20.9322 4.78888 20.9322Z" fill="#888071"/>
<path d="M20.4 32.3132L16.2503 35.4944C16.2503 35.4944 16.4111 42.1247 16.3039 42.3927C16.1967 42.6607 14.742 44.3335 14.9028 45.3021C15.0291 46.0562 15.6033 46.3242 17.1652 46.3816C18.7271 46.439 21.9082 45.7346 21.9082 45.7346L20.4 32.3132ZM32.5811 34.8436L29.5109 36.5663C29.5109 36.5663 29.9435 37.8602 29.9435 39.6939C29.9435 41.5275 29.7827 42.676 29.6755 43.055C29.5683 43.4339 28.6687 44.1498 28.7606 45.191C28.8027 45.6734 29.4075 46.0524 30.4832 45.9988C31.5589 45.9452 33.1246 45.838 33.1246 45.838L34.6865 35.6514L32.5811 34.8436Z" fill="#B85C3E"/>
<path d="M12.7324 10.646C12.7324 10.646 12.2309 8.88506 12.6597 6.08288C13.0923 3.28069 13.8081 1.80686 14.4934 1.73413C15.1748 1.66139 16.4687 2.9553 17.4755 4.50186C18.4823 6.04842 19.3091 8.77788 19.3091 8.77788L12.7324 10.646ZM24.4427 37.2323C24.4427 37.2323 24.4771 40.4671 24.5499 41.9026C24.6226 43.3382 24.5537 46.527 24.2627 46.8792C23.8149 47.419 23.3631 47.4343 22.3946 47.4726C21.8166 47.4955 22.5745 43.9162 22.5745 43.7708C22.5745 43.6253 22.609 35.0388 22.609 35.0388L24.4427 37.2323Z" fill="#FB8B02"/>
<path d="M14.8493 26.0615C14.8493 26.0615 13.988 28.791 14.2023 30.839C14.4167 32.8871 15.6034 35.4749 16.7901 36.5162C17.9769 37.5574 19.0526 38.0972 19.1597 38.3498C19.2669 38.6025 19.6995 42.1588 19.554 42.913C19.4086 43.6671 18.3673 45.608 18.5472 46.3621C18.7272 47.1162 19.4392 47.5909 21.2767 47.5488C23.6655 47.4952 23.5391 47.1354 23.719 45.6462C23.8415 44.6433 23.6846 37.7067 23.6846 37.7067C23.6846 37.7067 25.1584 37.8522 27.2409 37.7067C29.3234 37.5612 31.9112 36.6272 31.9112 36.6272C31.9112 36.6272 33.3851 41.2248 32.8797 42.6258C32.3783 44.0269 31.5514 44.8194 31.693 45.7879C31.8385 46.7564 33.0941 47.189 34.6407 47.0435C36.1872 46.898 37.3701 45.8951 37.4429 44.5629C37.5156 43.2345 37.4773 35.8692 37.6955 35.295C37.9099 34.7208 38.7023 32.7455 38.6296 30.7663C38.5569 28.7872 38.4152 27.9986 38.4152 27.9986C38.4152 27.9986 40.2719 27.2904 41.9907 25.9888C43.2999 24.9973 44.2837 23.6919 44.8082 21.7472C45.6695 18.5508 44.4866 15.3887 42.1132 14.3092C39.8316 13.2718 37.5845 13.6622 37.5156 15.316C37.4467 16.9697 38.9167 16.6099 40.0307 17.0387C41.1447 17.4712 42.4003 19.4465 41.0719 21.3874C39.7436 23.3283 37.4084 23.9369 36.6887 24.0097C35.969 24.0824 34.6407 22.9684 31.873 22.8957C29.1052 22.823 25.1201 24.8365 25.0091 24.5839C24.9019 24.3312 28.9597 21.709 29.2469 18.2981C29.5148 15.1361 28.8526 13.6622 28.8526 13.6622C28.8526 13.6622 28.3511 8.31053 27.6314 5.79545C26.9117 3.28037 25.9164 1.41225 25.2694 1.45053C24.6225 1.48498 22.54 3.75123 21.7858 4.86522C21.0317 5.9792 20.2048 7.77459 20.2048 7.77459C20.2048 7.77459 16.9892 7.65592 15.569 8.16889C14.2751 8.63592 12.8012 9.42451 11.8672 10.8983C10.9331 12.3722 10.646 13.2335 10.2134 13.4479C9.78084 13.6622 7.73279 14.0948 7.55287 14.3475C7.37295 14.6001 6.90592 17.9421 7.01311 18.4436C7.12029 18.9451 7.20451 20.1165 7.8017 20.7787C8.48311 21.5329 10.3704 22.8076 11.8633 23.7608C13.3065 24.6796 14.7076 25.4146 14.8493 26.0615Z" fill="#FFB800"/>
<path d="M28.0908 29.58C29.4192 29.5608 29.3847 27.9645 29.4039 25.9854C29.4192 24.2551 29.3503 23.2368 29.3503 23.2368C29.3503 23.2368 28.5885 23.3401 27.9147 23.5966C27.2486 23.8493 26.6744 24.0828 26.6744 24.0828V26.8658C26.6706 27.819 26.7778 29.5991 28.0908 29.58ZM30.426 22.9879C30.426 22.9879 30.426 24.657 30.4451 26.0772C30.4643 27.6047 30.3188 29.2584 31.8462 29.2393C33.1593 29.224 33.1593 27.5511 33.1746 25.6638C33.1822 24.6761 33.209 22.9879 33.209 22.9879C33.209 22.9879 32.5621 22.8616 31.7888 22.8808C31.1801 22.8961 30.426 22.9879 30.426 22.9879Z" fill="#FF9B31"/>
<path d="M17.1538 15.7029C16.8743 16.3805 16.2733 17.349 15.2818 17.0964C14.6464 16.9356 14.6004 15.5689 14.9717 14.7574C15.412 13.8004 15.9977 13.3678 16.6829 13.4482C17.4371 13.54 17.5098 14.8339 17.1538 15.7029ZM10.5924 15.4962C10.5732 15.0636 9.45924 14.7612 8.59791 14.4358C7.86674 14.164 7.46479 14.1487 7.26956 14.3286C7.07432 14.5086 6.83698 14.9756 6.72979 15.6953C6.6226 16.415 6.66088 17.6323 6.83698 18.3903C7.0169 19.1636 7.30401 20.1321 8.57877 20.6374C9.67362 21.07 10.3206 20.4766 10.7876 20.1512C11.381 19.7416 11.1245 18.7693 10.2861 19.2707C9.6583 19.6497 9.22573 19.7569 8.73956 19.3971C8.07346 18.9032 7.91268 17.4409 7.96627 17.3146C8.19979 16.7671 9.13385 16.6332 9.51284 16.4877C9.89182 16.3422 10.6115 15.8752 10.5924 15.4962Z" fill="#2C312C"/>
<path d="M18.1223 19.3129H18.0917C18.0802 19.3129 16.8705 19.2248 16.1164 19.2057L13.9612 19.1521C13.9612 19.1521 13.5094 19.1904 13.5094 18.7463C13.5094 18.2754 13.9803 18.3482 13.9803 18.3482L16.1355 18.4018C16.9088 18.4209 18.0994 18.5051 18.1491 18.5089C18.3712 18.5243 18.5358 18.7195 18.5205 18.9377C18.5051 19.1521 18.3291 19.3129 18.1223 19.3129ZM17.4371 21.9351C17.3797 21.9351 17.3184 21.9236 17.2648 21.8968C17.2572 21.893 16.304 21.4375 15.4426 21.1427C14.5469 20.8403 13.5439 20.5149 13.5439 20.5149C13.3334 20.446 13.2147 20.2201 13.2836 20.0096C13.3525 19.799 13.5784 19.6804 13.7889 19.7493C13.7889 19.7493 14.7995 20.0747 15.6991 20.3809C16.6102 20.691 17.5711 21.1504 17.6132 21.1733C17.8123 21.269 17.8965 21.5102 17.8008 21.7093C17.7319 21.8509 17.5864 21.9351 17.4371 21.9351ZM15.4809 23.4281C15.4044 23.4281 15.324 23.4051 15.2551 23.3592C15.2474 23.3554 14.5737 22.896 14.1219 22.6165C13.6511 22.3294 12.8051 21.7858 12.8051 21.7858C12.8051 21.7858 12.4261 21.5638 12.6711 21.2116C12.9161 20.8594 13.2376 21.1044 13.2376 21.1044C13.2376 21.1044 14.0798 21.6404 14.543 21.9275C15.0139 22.2146 15.68 22.6739 15.7106 22.6931C15.8944 22.8194 15.9403 23.0682 15.814 23.252C15.7336 23.3668 15.6073 23.4281 15.4809 23.4281Z" fill="#888071"/>
<path d="M24.6338 4.72035C24.45 4.65527 23.2595 6.04105 22.6661 7.41535C22.0728 8.78964 21.8584 9.54378 21.912 9.78496C21.935 9.89214 22.6202 10.4855 23.6346 11.2932C24.6874 12.1278 25.3573 12.6407 25.6559 12.6139C25.9507 12.5871 26.0349 10.2979 25.7899 8.22308C25.5449 6.14824 24.9285 4.82753 24.6338 4.72035Z" fill="#FED0AB"/>
</svg>
