<svg width="50" height="50" viewBox="0 0 50 50" fill="none" xmlns="http://www.w3.org/2000/svg">
<path d="M50 25C50 38.8071 38.8071 50 25 50C11.1929 50 0 38.8071 0 25C0 11.1929 11.1929 0 25 0C38.8071 0 50 11.1929 50 25Z" fill="white"/>
<path d="M48.5 25C48.5 12.0213 37.9787 1.5 25 1.5C12.0213 1.5 1.5 12.0213 1.5 25C1.5 37.9787 12.0213 48.5 25 48.5V50C11.1929 50 0 38.8071 0 25C0 11.1929 11.1929 0 25 0C38.8071 0 50 11.1929 50 25C50 38.8071 38.8071 50 25 50V48.5C37.9787 48.5 48.5 37.9787 48.5 25Z" fill="#374957"/>
<path d="M15.4411 30.6168L14.2856 35.6943L18.9075 34.4249L32.2947 19.7178C32.7279 19.2418 32.9713 18.5961 32.9713 17.9229C32.9713 17.2497 32.7279 16.6041 32.2947 16.128L32.096 15.9097C31.6626 15.4338 31.0749 15.1664 30.4621 15.1664C29.8494 15.1664 29.2617 15.4338 28.8283 15.9097L15.4411 30.6168Z" fill="#374957"/>
<path d="M31.9713 17.9232C31.9713 17.541 31.85 17.185 31.6471 16.9125L31.5553 16.8011L31.3571 16.5824C31.1025 16.3028 30.7781 16.1665 30.4625 16.1664C30.1469 16.1664 29.8226 16.3037 29.568 16.5834L29.567 16.5824L16.358 31.0931L15.6305 34.2875L18.3629 33.5365L31.5553 19.0443C31.8125 18.7615 31.9712 18.3597 31.9713 17.9232ZM33.9713 17.9232C33.9712 18.776 33.683 19.6106 33.1451 20.2631L33.0348 20.391L19.6471 35.098C19.5196 35.238 19.3551 35.3389 19.1725 35.389L14.5504 36.6586C14.2115 36.7516 13.8484 36.6602 13.5944 36.4174C13.3403 36.1743 13.2331 35.8149 13.3112 35.472L14.4664 30.3949L14.5026 30.2709C14.547 30.1503 14.6148 30.0393 14.7018 29.9437L28.0885 15.2367L28.2067 15.1136C28.8078 14.5161 29.6095 14.1664 30.4625 14.1664C31.3155 14.1665 32.1172 14.516 32.7184 15.1136L32.8356 15.2367L33.0348 15.4545C33.6436 16.1237 33.9713 17.0138 33.9713 17.9232Z" fill="#374957"/>
<path d="M15.4411 30.6179L14.2856 35.6954L18.9075 34.426L30.4621 21.7322L26.9957 17.9241L15.4411 30.6179Z" fill="#374957"/>
<path d="M30.4621 21.7322L18.9075 34.426L14.2856 35.6954L15.4411 30.6168L26.9957 17.9241L30.4621 21.7322ZM16.3579 31.095L15.6305 34.2875L18.3628 33.5383L29.1089 21.7317L26.9946 19.4084L16.3579 31.095Z" fill="#374957"/>
<path d="M33.9292 34.6956L34.0308 34.7005C34.5351 34.7515 34.9292 35.1777 34.9292 35.6956C34.9291 36.2134 34.5351 36.6396 34.0308 36.6907L33.9292 36.6956H24.6851C24.1328 36.6956 23.6851 36.2478 23.6851 35.6956C23.6851 35.1433 24.1328 34.6956 24.6851 34.6956H33.9292ZM26.3228 17.1848C26.7056 16.8363 27.2853 16.8406 27.6626 17.179L27.7358 17.2512L31.2017 21.0589L31.2671 21.138C31.5687 21.5453 31.5182 22.1234 31.1353 22.4719C30.7524 22.8202 30.1726 22.8161 29.7954 22.4778L29.7231 22.4055L26.2563 18.5969L26.1919 18.5178C25.8904 18.1105 25.94 17.5334 26.3228 17.1848Z" fill="#374957"/>
</svg>
